<svg xmlns="http://www.w3.org/2000/svg" width="428" height="584"><path d="m306 104 4 1 .418 2.18a127.803 127.803 0 0 0 1.894 7.945l.676 2.57c1.265 2.882 2.271 3.761 5.012 5.305 3.632 1.129 7.289 2.025 10.98 2.938L332 127l1 3c-2.624.837-5.249 1.67-7.875 2.5l-2.262.723C317.227 135 317.227 135 315 135c-2.104 5.933-3.76 11.828-5 18l2.371 1.863 3.067 2.45 3.058 2.425C321 162 321 162 322 165h2c10.475 11.888 12.775 27.335 12.175 42.532-1.112 15.7-7.311 30.034-15.175 43.468l-2-1 1.375 3c2.965 6.983 5.343 14.744 2.902 22.21-1.528 3.43-2.59 5.37-5.84 7.353C315 283 315 283 312 282v-6l6-1c.337-6.963-.697-12.433-3-19l.813 2.375c.2 3.873-.234 4.885-2 8.188-7.374 13.783-8.581 28.619-9.097 43.964-.667 18.6-5.33 32.419-14.716 48.473l-1.26 2.202C274.93 385.197 274.93 385.197 265 389c-3.228.484-4.516.323-7.25-1.5-2.456-3.508-2.467-6.252-2.75-10.5h-3v2c-12.33 6.028-26.867 7.142-39.875 2.75-5.247-1.92-10.233-4.054-15.125-6.75v-2h-2v8h-2l-.313 2.313c-.759 2.969-1.057 4.109-3.687 5.687-4.942.297-7.522-1.061-11.313-4.188-21.465-20.48-32.657-48.884-33.496-77.933-.623-21.165-6.466-37.084-16.437-55.668-11.396-21.355-19.397-43.572-13.129-67.961 1.941-5.776 4.571-10.51 8.375-15.25l1.648-2.102c2.859-3.499 2.859-3.499 4.352-4.898h2v-2c13.041-10.241 29.197-14.082 45.563-12.625 1.481.19 2.962.39 4.437.625l-.492 3.176c-.747 5.99-.653 11.984-.633 18.012l-.012 3.521.004 3.396.004 3.068c.124 2.712.52 5.186 1.129 7.827h-9l3.75 1.438c4.462 2.215 5.802 4.734 7.508 9.3L184 199l1.25 3.563L186 205l-.813-3.5c-4.46-20.264-7.257-40.024-2.187-60.5h2v-6h2v-4h2l.25-2.75c.861-3.731 1.978-4.73 4.75-7.25 1.235-2.133 1.235-2.133 2-4h3l2-4h4v-2c4.054-2.22 7.421-3.428 12-4l3.125-.563c3.641-.554 7.195-.437 10.875-.437v2l2-1c2-.04 4-.043 6 0v2l2.063-.688c4.092-.435 6.268.89 9.937 2.688v2l2.18-.27c3.84.368 5.189 1.94 7.945 4.582l2.57 2.426L266 122l1.742 1.543c1.544 1.788 1.774 3.16 2.258 5.457 1.003 2.287 2.077 4.531 3.16 6.781C274 138 274 138 274 142l2 1 1 3 2.79.078c9.316.418 17.308 1.973 26.21 4.922l-1.938-6.313-1.09-3.55A306.013 306.013 0 0 0 301 135a88.01 88.01 0 0 0-7.938-2c-7.794-1.598-7.794-1.598-10.062-5l1.688-.55c1.599-.528 3.195-1.063 4.789-1.606a120.668 120.668 0 0 1 4.796-1.5c3.38-1.056 5.404-1.91 7.54-4.781 1.705-5.116 2.988-10.308 4.187-15.563zm-98 19-2.313 1c-1.901.883-1.901.883-2.437 3.125L203 129h-2c-9.188 12.26-11.253 27.025-11 42h1c1.173-6.378 2.295-12.503 2-19 11.542 5.598 11.542 5.598 16.313 8.75 6.104 3.906 12.538 5.161 19.687 4.25 7.266-1.893 13.766-5.984 20.203-9.738 4.168-2.42 8.27-4.588 12.797-6.262 2 1 2 1 4 4 .402-5.362-.91-9.18-3-14l-1.25-3c-5.174-8.87-11.964-14.676-21.91-17.398-11.332-2.4-22.309-2.864-31.84 4.398zm58 30 2 4v-4h-2zm8 0 1 2zm-13 8v3zm13 1v1h6v-1h-6zm-15 2v7h1v-7h-1zm23 0 2 4v-3l-2-1zm3 4v3l2-1-2-2zm-27 3c-.504 12.275 1.37 23.27 5 35l2-2a78.217 78.217 0 0 0-1.75-7.063c-2.353-8.574-3.419-17.101-4.25-25.937h-1zm37 0 1 2zm-29 1v5h1v-5h-1zm21 1 1 2zm-96-2c-1.702 3.405-.322 7.118.313 10.75l.396 2.422c.756 4.44 1.724 8.59 3.291 12.828l.86 2.387c3.747 9.682 8.523 18.116 14.89 26.3l1.467 1.894c1.21 1.515 2.491 2.973 3.783 4.419h2l2 5 3-1-1.652-1.95C197 204.876 197 204.876 197 194l2.273-.297c14.358-2.097 25.893-8.04 36.727-17.703l-2-1c-1.758.656-3.483 1.403-5.188 2.188-10.923 4.696-21.926 7.37-33.812 7.812-2.112-9.41-2.112-9.41-3-14h-1zm98 6 1 3zm1 3 .813 3.563c1.512 6.788 2.839 13.615 4.187 20.437h1c.917-8.844-1.74-15.92-5-24h-1zm-23 3v6h1v-6h-1zm-99 1 2 2 1-2h-3zm133 5 1 2zm-33 1 1 4zm30 3c-1.316 2.633-.748 3.802-.063 6.625l.59 2.477L299 204h1v-10l-2-1zm-29 4 1 2zm33 0v5h1v-5h-1zm-37 2 2 3v-3h-2zm2 3v3zm36 1v5h1v-5h-1zm-7 1 1 9 2-2-2-7h-1zm4 1c-1.552 3.104-.076 5.736.938 8.875l.671 2.116c2.723 8.346 6.054 16.452 9.391 24.567 1.693 4.136 3.346 8.29 5 12.442 1.416-4.25-.315-7.125-1.895-11.105l-.931-2.419c-.987-2.558-1.986-5.11-2.986-7.663-.989-2.536-1.975-5.072-2.955-7.61-.61-1.58-1.225-3.157-1.846-4.732-1.85-4.771-3.24-9.483-4.387-14.471h-1zm-113 1-1 2c.995 2.478.995 2.478 2.438 5.125l1.433 2.758L191 218h2v2l2-1-7-13h-1zm84 0 1 3zm-4 1 .482 2.483c.58 3.937.727 7.813.8 11.783l.055 2.4c.058 2.528.111 5.056.163 7.584.265 12.603.72 25.168 1.5 37.75h1c.051-7.222.086-14.445.11-21.667.01-2.454.023-4.908.04-7.362.025-3.54.037-7.08.045-10.62l.032-3.29c0-6.592-.654-12.655-2.227-19.061h-2zm-3 1 .482 3.285c.67 5.378.728 10.74.8 16.153l.055 3.27c.078 4.589.146 9.177.215 13.766.052 3.363.11 6.726.167 10.089l.04 3.113c.096 5.52.439 10.86 1.241 16.324 2.495-3.742 2.054-5.105 1.621-9.516-.506-5.9-.702-11.734-.648-17.656l.017-2.37c.027-3.215.062-6.43.106-9.644.117-9.156.114-17.853-2.096-26.814h-2zm8 1v6h1v-6h-1zm32 0 1 3zm1 3 1 4zm-7 1c.554 5.234 1.842 9.712 3.871 14.578l.856 2.1a921.997 921.997 0 0 0 1.793 4.357c.92 2.22 1.827 4.443 2.732 6.668.58 1.417 1.162 2.834 1.744 4.25l.821 2.008c1.207 2.904 2.43 5.41 4.183 8.039-.556-5.09-1.72-9.335-3.652-14.07l-.789-1.952c-.825-2.038-1.66-4.07-2.497-6.103l-1.67-4.113c-1.022-2.52-2.049-5.036-3.08-7.552A952.842 952.842 0 0 1 299 213h-1zm-25 3v24h1v-24h-1zm33 0 1 2zm1 2 1 3zm1 3 1 2zm1 2 1 3zm-113 1c1.485 5.281 5.087 9.28 9 13h2c-1.485-3.237-3.327-5.933-5.5-8.75l-1.844-2.422L198 224h-2zm114 2 1 2zm1 2 1 3zm1 3 1 2zm1 2 1 3zm1 3 1 5 1-3-2-2zm-107 1c.557 3.971 2.488 5.941 5.188 8.813 2.702 2.906 5.36 5.804 7.875 8.875 2.643 3.114 5.593 5.696 8.703 8.335C233.043 266.807 237 270.927 241 275l1-3h-2l-2-4h-2l-1-3h-2v-2h-2l-.766-1.754c-1.38-2.512-2.932-4.17-4.972-6.18l-2.237-2.216-2.338-2.287-2.302-2.276c-1.468-1.45-2.939-2.899-4.41-4.345-2.34-2.3-4.66-4.618-6.975-6.942zm16 0v3h2l2 4h2v2h2v2h2v2l2-1c-3.723-4.42-7.295-8.578-12-12zm93 5 1 2zm1 2 1 3zm-82 6v2l2-1-2-1zm82 3 1 3zm-78 1v2l2-1-2-1zm79 2 1 2zm-76 1 3 3-1-3h-2zm31 0v11h1v-11h-1zm-28 3c1.443 3.366 3.333 5.51 6 8l2-1a417.694 417.694 0 0 0-2.875-3.5l-1.617-1.969L247 260h-2zm8 8c1.37 2.95 2.878 5.525 5 8h2c-1.491-3.795-3.757-5.61-7-8zm20 5 1 2zm-31 2 2 4h2l.875 1.938c.953 2.214.953 2.214 3.125 3.062-1.24-3.432-2.503-6.303-5-9h-3zm18 1c.608 3 1.548 5.093 3.25 7.625 2.979 4.603 5.374 9.44 7.75 14.375.82-1.68.82-1.68 1-4-1.236-3.171-1.236-3.171-3.125-6.438l-1.82-3.37c-2.058-3.197-4.273-5.617-7.055-8.192zm-94.813 6.75c-3.157 4.69-3.291 8.268-3 13.813.93 3.936 2.303 6.282 4.813 9.437l2.098 1.129c2.55 2.509 2.406 4.678 2.511 8.142l.016 2.416c.101 6.122.739 11.401 2.375 17.313l.5 3.563c.53 3.645 1.423 6.92 2.5 10.437 1.234-1.714 1.234-1.714 2-4l-.905-2.158c-1.36-3.531-1.542-6.892-1.736-10.627-.101-1.515-.204-3.03-.308-4.545a562.83 562.83 0 0 1-.426-7.117 386.312 386.312 0 0 0-.453-6.9l-.086-2.144c-.123-2.289-.123-2.289-1.086-5.509-2.866-2.344-2.866-2.344-6-4l-2-3h-2c.114-1.626.242-3.25.375-4.875l.21-2.742C165 289 165 289 167 287v-4l5-2v-2l1.5.5c2.72.65 2.72.65 6.438.313 3.09-.023 4.052.181 6.875 1.75 3.746 4.174 5.355 8.947 6.187 14.437h1c.528-5.91-.083-9.409-3.523-14.3-2.772-3.19-5.482-4.449-9.649-4.973-6.693-.292-10.784 1.274-15.64 6.023zM269 279l1 2zm1 2 1 3v-3h-1zm-19 2v3l2-1-2-2zm-76 1v1l8 1v-2h-8zm9 1 1 2zm89 0v2l2-1-2-1zm-20 1-1 3 3 1 .25 2c.669 2.676 1.463 4.477 2.75 6.875 1.98 3.772 2.648 6.896 3 11.125l2-2c-.31-5.263-1.795-9.303-4-14h-2l-1-5h-2l-1-3zm-84 4v7c2.307-2.715 2.307-2.715 1.625-5.188L170 290h-1zm18 0v7l2-1v-6h-2zm5 6 1 3zm-21 2 1 2zm32 8v2l-3 1c-6.929 9.985-8.34 20.136-9 32l-2-2-2-1c.368 8.092 4.195 15.679 9.375 21.813L199 362l1.738 1.738c5.025 4.864 9.498 6.77 16.262 8.262l2.332.688c7.545 2.001 15.138 1.061 22.668-.688l1-2 3.438-1.375c3.598-1.243 3.598-1.243 4.875-3.75L252 363l2-1a78.037 78.037 0 0 0 2-5h2c3.1-5.422 4.455-9.785 5-16l1-1c1.562-10.242 1.638-20.765 0-31-2.319 3.478-2.273 4.955-2.344 9.066l-.09 3.663-.066 3.834c-.148 8.363-.465 16.295-2.5 24.437h-2l.36-2.938c1.442-13.922-.298-27.77-9.36-39.062-5.282-5.659-11.084-9.878-19.05-10.469-1.421-.033-2.842-.043-4.262-.031l-2.253.009c-7.596.222-14.379 2.56-19.435 8.491zm69-7 1 7 2-1-2-6h-1zm-100 1 1 2 2-1-3-1zm3 2v1h7v-1h-7zm14 0v2l-5 2v16l2-1c.359-3.593.445-7.168.559-10.777.145-1.064.29-2.127.441-3.223l3-2-1-3zm-9 6v13h1v-13h-1zm94 0c-1.435 2.87-1.112 5.335-1.098 8.54l.01 3.944.026 4.141A3987.48 3987.48 0 0 0 273 339l2.999 1v-32h-2zm-89 18v7l2-1-1-6h-1zm1 7v5l2-1v-4h-2zm87 10-1 7h2v-7h-1zm-94 8 1 3v-3h-1zm92 1-1.574 3.07-2.113 4.055-1.03 2.016c-2.918 5.563-5.96 10.31-11.283 13.859v2c6.478-1.715 9.998-7.1 13.25-12.625 3.326-5.95 3.326-5.95 2.75-12.375zm-90 3v4h2l-1-4h-1zm2 4v3l2 1v-4h-2zm3 4c-.34 3.246-.34 3.246 2.5 5.688L191 371v-3h-2l-2-5h-1zm6 7v3l3-1-3-2z" fill="#3BBADD"/><path d="m264 148 3 6h2v4l-2.25.75c-3.106 1.412-4.69 2.528-6.75 5.25-.655 2.51-.895 4.435-1 7l-.156 3.074c-.234 8.697.993 16.52 3.156 24.926l.574 2.363c.754 2.912 1.26 4.472 3.426 6.637h-2l.976 3.28c1.342 5.394 1.358 10.695 1.403 16.228l.051 3.285c.053 3.444.094 6.888.132 10.332.045 3.451.091 6.902.143 10.353.032 2.141.059 4.283.08 6.424-.103 8.99-.103 8.99 3.215 17.098l-.063 2.938c.08 3.9 1.398 5.397 4.063 8.062l2-1v2h3v2h3l1-6h-6l-4-8 2 6-2 1c-3.429-8.429-3.429-8.429-3-13h1l1-36h1l1-17-2-1c-.344-1.82-.344-1.82-.5-4.125-.369-4.161-1.311-7.863-2.5-11.875-.35-2.33-.686-4.664-1-7l-1-3c-3.036-17.88-3.036-17.88.18-24.387 3.102-2.749 6.176-2.21 10.144-2.074 2.676.461 2.676.461 5.863 2.774C285 168 285 168 285 171h3c1.487 4.142 2.525 8.247 3.438 12.54.58 2.538 1.278 5.02 2 7.523 1.629 5.816 2.642 11.7 3.62 17.652 2.294 11.606 7.42 22.542 11.963 33.394 7.445 17.981 7.445 17.981 6.319 22.598l-1.402 2.106c-7.772 13.402-8.713 28.556-9.222 43.714-.667 18.6-5.33 32.419-14.716 48.473l-1.26 2.202C274.93 385.197 274.93 385.197 265 389c-3.228.484-4.516.323-7.25-1.5-2.456-3.508-2.467-6.252-2.75-10.5l1.54-.96c7.3-4.95 11.649-11.701 14.46-20.04a449.4 449.4 0 0 0-1-6l2-3v3h2c-.474-2.44-.942-4.814-1.688-7.188L272 341l2-2 2 1v-32l-3 1-1-5 1 2 1-1a88.406 88.406 0 0 0-1-5l-2 2c-1.43-2.354-2.087-3.48-1.625-6.25L270 294l1 3c-1.585-10.15-8.468-18.429-15-26l-2.23-2.602c-3.36-3.828-6.733-7.405-10.598-10.726-4.072-3.52-7.77-7.286-11.422-11.235l-1.952-2.103A1143.44 1143.44 0 0 1 224 238l-1.708-1.875C211.589 224.278 201.849 210.99 196 196l1-3 2.273-.297c13.23-1.933 25.378-6.788 34.727-16.703-.692.315-1.384.63-2.098.953-11.935 5.22-23.846 8.56-36.902 9.047-5.215-7.822-4.182-18.074-3-27l.297-2.309c.214-1.566.455-3.13.703-4.691 5.62.614 9.66 3.69 14.297 6.674 6.83 4.272 13.635 6.354 21.703 5.326 7.995-2.083 15.17-6.778 22.266-10.879C260.214 148 260.214 148 264 148zm23 25 1 2zm-14 84v11h1v-11h-1z" fill="#3DBBDD"/><path d="m306 104 4 1 .418 2.18a127.803 127.803 0 0 0 1.894 7.945l.676 2.57c1.265 2.882 2.271 3.761 5.012 5.305 3.632 1.129 7.289 2.025 10.98 2.938L332 127l1 3c-2.624.837-5.249 1.67-7.875 2.5l-2.262.723C317.227 135 317.227 135 315 135c-2.104 5.933-3.76 11.828-5 18l2.371 1.863 3.067 2.45 3.058 2.425C321 162 321 162 322 165h2c10.475 11.888 12.775 27.335 12.175 42.532-1.112 15.7-7.311 30.034-15.175 43.468l-2-1 1.375 3c2.965 6.983 5.343 14.744 2.902 22.21-1.528 3.43-2.59 5.37-5.84 7.353C315 283 315 283 312 282v-6l6-1c.416-8.597-1.491-15.36-4.695-23.281l-1.06-2.635L311 246c-1.925-4.783-3.84-9.569-5.746-14.36-.587-1.47-1.177-2.942-1.769-4.411-3.954-9.824-7.028-19.03-8.36-29.604-.79-5.335-2.146-10.056-4.125-15.063-.943-2.415-1.7-4.828-2.438-7.312-1.454-4.443-3.618-7.626-6.562-11.25-2.68-1.34-4.526-.985-7.5-.75l-2.969.203c-2.879.315-2.879.315-4.531 3.547a80.447 80.447 0 0 0-.375 7.938v2.388c.177 9.453 2.264 18.496 4.375 27.674 1.426 6.238 2.12 12.112 2.078 18.516l-.007 2.224c-.053 9.443-.316 18.883-.571 28.322l-.145 5.55c-.116 4.462-.235 8.925-.355 13.388h-1l-.031-2.059c-.109-7.106-.223-14.212-.341-21.317-.043-2.648-.085-5.296-.125-7.944-.058-3.818-.122-7.636-.187-11.453l-.05-3.556c-.118-6.606-.475-13.11-1.266-19.671l-1 1c.322 1.669.658 3.335 1 5 .128 2.011.213 4.026.265 6.04l.102 3.622.098 3.889c.038 1.341.076 2.682.116 4.024.165 5.678.321 11.356.469 17.034.09 3.482.19 6.963.295 10.444.056 1.956.103 3.912.15 5.868.192 6.331.639 12.015 2.505 18.079h2l-1.563-2.313L272 277l1-3c4 6.75 4 6.75 4 9h6l-1 5-6-1v-2l-1.875-.313C272 284 272 284 270 281c-4.442-14.516-3.111-31.108-2.904-46.11.155-12.09-.27-23.198-4.391-34.71-1.24-3.835-1.802-7.765-2.392-11.743l-.393-2.42c-1.198-7.775-2.434-17.12 1.267-24.33 2.377-2.212 4.709-2.86 7.813-3.687-.348-1.975-.348-1.975-1-4l-2-1a97.306 97.306 0 0 1-1.313-6.063C263.401 141.03 261.687 136.76 258 132l-1.328-1.746c-6.1-7.662-14.878-10.63-24.324-12.008-6.112-.45-12.297-.237-18.348.754l-1 2a132.038 132.038 0 0 1-5 3l-3 2-2 1v2h-2a419.565 419.565 0 0 0-4.5 9.188l-1.281 2.667c-6.706 17.302-5.512 38.908.781 56.145l.86 2.387c3.902 10.08 8.738 18.639 15.889 26.73C216 229.814 216 229.814 216 232h2l2 5h3v3h2c2.125 1.875 2.125 1.875 4 4v2h2v2h2v2h2v2l4 2v2l1.75.75c2.58 1.433 4.311 3.034 6.25 5.25v2l4 2v2h2c1.219 1.496 1.219 1.496 2.5 3.438 1.787 2.787 1.787 2.787 4.5 4.562a100.708 100.708 0 0 1 3 5l1.535 2.648c2.837 5.064 5.144 9.661 6.465 15.352l.718 2.276c2.294 7.45 2.824 14.39 2.782 22.161l-.017 3.706c-.3 15.408-2.844 33.132-14.23 44.619-1.366 1.143-2.803 2.202-4.253 3.238l-1 2h-3v2c-12.33 6.028-26.867 7.142-39.875 2.75-5.247-1.92-10.233-4.054-15.125-6.75v-2l-6-2v-3h-2l-.805-1.715-1.07-2.223-1.055-2.214c-.938-2.011-.938-2.011-3.07-2.848a99.183 99.183 0 0 1-1.938-6.188c-.977-3.461-1.9-6.512-3.617-9.68-1.857-4.025-2.247-7.687-2.632-12.07l-.244-2.505c-.679-7.531-.772-15-.569-22.557l-2.324-.883c-3.717-1.551-5.34-2.78-7.676-6.117-.42-4.034-.29-7.96 0-12h2l.188-1.875C167 283 167 283 169.563 281.75L172 281v-2c1.915-.108 3.833-.186 5.75-.25l3.234-.14c3.654.473 4.738 1.582 7.016 4.39l-2 2 3 5h-2c.567 4.13.567 4.13 2 8l-1.914 3.004c-2.743 4.576-2.615 8.713-2.461 13.933l.043 2.771c.19 8.092.58 16.372 2.332 24.292l2 1c.781 1.89.781 1.89 1.5 4.25l.781 2.453L192 352c.882 2.882.882 2.882 2 5l3 1c2.564 2.43 4.926 4.91 7.188 7.625 3.934 3.322 7.868 4.204 12.812 5.375l2.344.66c7.584 1.909 14.958 1.1 22.656.34l1-3 3.188-1.125c4.512-1.7 6.2-4.975 8.55-9.012L256 357h2c1.935-4.147 2.724-8.323 3.535-12.793C262 342 262 342 263 340c1.528-10.188 1.794-20.832 0-31l-1-1c-.04-2.333-.042-4.667 0-7l-2-1c-.625-3.063-.625-3.063-1-6h-2l-1-5h-2a156.584 156.584 0 0 1-3-5 349.422 349.422 0 0 0-4-5l-2-3-3-1v-3h-2a381.113 381.113 0 0 1-5-6l-2-1v-2h-2c-1.27-1.293-1.27-1.293-2.813-3.188-2.792-3.303-5.721-6.357-8.82-9.367a149.503 149.503 0 0 1-16.441-18.863c-1.828-2.58-1.828-2.58-3.926-4.582-3-5.423-3-5.423-3-9l-1.848-.754c-6.364-3.685-8.027-13.566-9.84-20.246-4.738-18.52-5.835-37.306-1.312-56h2v-6h2v-4h2l.25-2.75c.861-3.731 1.978-4.73 4.75-7.25 1.235-2.133 1.235-2.133 2-4h3l2-4h4v-2c4.054-2.22 7.421-3.428 12-4l3.125-.563c3.641-.554 7.195-.437 10.875-.437v2l2-1c2-.04 4-.043 6 0v2l2.063-.688c4.092-.435 6.268.89 9.937 2.688v2l2.18-.27c3.84.368 5.189 1.94 7.945 4.582l2.57 2.426L266 122l1.742 1.543c1.544 1.788 1.774 3.16 2.258 5.457 1.003 2.287 2.077 4.531 3.16 6.781C274 138 274 138 274 142l2 1 1 3 2.79.078c9.316.418 17.308 1.973 26.21 4.922l-1.938-6.313-1.09-3.55A306.013 306.013 0 0 0 301 135a88.01 88.01 0 0 0-7.938-2c-7.794-1.598-7.794-1.598-10.062-5l1.688-.55c1.599-.528 3.195-1.063 4.789-1.606a120.668 120.668 0 0 1 4.796-1.5c3.38-1.056 5.404-1.91 7.54-4.781 1.705-5.116 2.988-10.308 4.187-15.563zm-32 49 1 2zm21 18 1 2zm6 18 1 2zm-3 4c-1.316 2.633-.748 3.802-.063 6.625l.59 2.477L299 204h1v-10l-2-1zm4 4v5h1v-5h-1zm-37 2 2 3v-3h-2zm2 3v3zm36 1v5h1v-5h-1zm-3 2c-1.552 3.104-.076 5.736.938 8.875l.671 2.116c2.723 8.346 6.054 16.452 9.391 24.567 1.693 4.136 3.346 8.29 5 12.442 1.416-4.25-.315-7.125-1.895-11.105l-.931-2.419c-.987-2.558-1.986-5.11-2.986-7.663-.989-2.536-1.975-5.072-2.955-7.61-.61-1.58-1.225-3.157-1.846-4.732-1.85-4.771-3.24-9.483-4.387-14.471h-1zm4 4 1 3zm1 3 1 4zm1 4 1 2zm1 2 1 3zm1 3 1 2zm1 2 1 3zm1 3 1 2zm1 2 1 3zm1 3 1 2zm1 2 1 3zm1 3 1 5 1-3-2-2zm2 6 1 2zm1 2 1 3zm0 9 1 3zm1 3 1 2zm-143 28v1l8 1v-2h-8zm9 1 1 2zm-15 5v7c2.307-2.715 2.307-2.715 1.625-5.188L170 290h-1zm2 8 1 2zm1 2 1 2 2-1-3-1zm3 2v1h7v-1h-7zm5 6v13h1v-13h-1z" fill="#272727"/><path d="m306 104 4 1 .418 2.18a127.803 127.803 0 0 0 1.894 7.945l.676 2.57c1.265 2.882 2.271 3.761 5.012 5.305 3.632 1.129 7.289 2.025 10.98 2.938L332 127l1 3c-2.624.837-5.249 1.67-7.875 2.5l-2.262.723C317.227 135 317.227 135 315 135c-2.104 5.933-3.76 11.828-5 18l2.371 1.863 3.067 2.45 3.058 2.425C321 162 321 162 322 165h2c10.475 11.888 12.775 27.335 12.175 42.532-1.112 15.7-7.311 30.034-15.175 43.468l-2-1 1.375 3c2.965 6.983 5.343 14.744 2.902 22.21-1.528 3.43-2.59 5.37-5.84 7.353C315 283 315 283 312 282v-6l6-1c.416-8.597-1.491-15.36-4.695-23.281l-1.06-2.635L311 246c-1.925-4.783-3.84-9.569-5.746-14.36-.587-1.47-1.177-2.942-1.769-4.411-3.966-9.854-7.37-19.073-8.11-29.792l-.227-3.128L295 192h5c-1 2-1 2-2 3 .287 2.34.62 4.674 1 7l-.125-3.375C299 195 299 195 301 193c-.214-5.254-1.858-9.206-4.086-13.926-1.027-2.33-1.485-4.571-1.914-7.074-1.52-3.626-3.645-6.86-6-10h-3l-1.813-1.438c-2.697-1.926-4.93-2.192-8.187-2.562l.5-1.5c.707-3.534.56-6.897.5-10.5 10.35.29 19.13 1.73 29 5l-1.938-6.313-1.09-3.55A306.013 306.013 0 0 0 301 135a88.01 88.01 0 0 0-7.938-2c-7.794-1.598-7.794-1.598-10.062-5l1.688-.55c1.599-.528 3.195-1.063 4.789-1.606a120.668 120.668 0 0 1 4.796-1.5c3.38-1.056 5.404-1.91 7.54-4.781 1.705-5.116 2.988-10.308 4.187-15.563zm-4 93v5h1v-5h-1zm1 6v5h1v-5h-1zm-3 2c-1.552 3.104-.076 5.736.938 8.875l.671 2.116c2.723 8.346 6.054 16.452 9.391 24.567 1.693 4.136 3.346 8.29 5 12.442 1.416-4.25-.315-7.125-1.895-11.105l-.931-2.419c-.987-2.558-1.986-5.11-2.986-7.663-.989-2.536-1.975-5.072-2.955-7.61-.61-1.58-1.225-3.157-1.846-4.732-1.85-4.771-3.24-9.483-4.387-14.471h-1zm4 4 1 3zm1 3 1 4zm1 4 1 2zm1 2 1 3zm1 3 1 2zm1 2 1 3zm1 3 1 2zm1 2 1 3zm1 3 1 2zm1 2 1 3zm1 3 1 5 1-3-2-2zm2 6 1 2zm1 2 1 3zm0 9 1 3zm1 3 1 2z" fill="#3EBBDD"/><path d="M79 335c1.125 6.75 1.125 6.75 0 9l-2.492-.07c-7.12-.115-13.6.323-20.508 2.07l2 5 2.563-.5c3.53-.513 6.876-.5 10.437-.5l1.883-.496c2.514-.599 4.786-.6 7.367-.567l2.703.028L85 349l1 7-3.25-.063c-3.512-.09-3.512-.09-5.875.625-2.498.583-4.416.053-6.875-.562l-1 2h-6c1.63 1.63 3.783 1.578 6 2l3 1 1-2 2 3a78.97 78.97 0 0 0 8.563-2.063C87 359 87 359 91 359v-2h8v-2l1.625-.375c2.485-.613 2.485-.613 5.25-1.688 3.215-.964 5.79-1.096 9.125-.937l1 7c-3.508 1.964-7.147 2.91-11 4l-1 1h-6c-2.006.297-4.008.62-6 1v2l1.813.813C96.076 369.04 97.514 369.89 99 372c-.261 3.48-1.034 5.051-3 8-4.01 2.177-7.498 2.177-12 2v2l-6-1v3c3.446 1.063 6.563 1.087 10.156 1.027l3.598-.037c2.497-.035 4.995-.074 7.492-.117l3.598-.033 3.287-.051c2.845.21 4.462.736 6.869 2.211v2h2v3l2 1v3h2l-2 5h-6v2l-7 3h5l1 2 1.652-.656c5.651-2.087 10.36-2.669 16.348-2.344h3v2h2v2l4 2v2h2c.125 4.75.125 4.75-1 7a502.64 502.64 0 0 1-6 2 97.457 97.457 0 0 0-5 3l2 2 1-2 1.75 1c2.449 1.27 2.449 1.27 6.25 1l.938-1.875L141 423c5.064-1.326 10.239-1.514 14.938 1.063 1.751 3.194 1.719 6.394 1.062 9.937-1.625 2-1.625 2-4 3-3.25.188-3.25.188-6 0l.125 2.313C147 442 147 442 145 445h-2v2h-2v2c-1.583.054-3.166.093-4.75.125l-2.672.07c-2.692-.204-4.277-.83-6.578-2.195v-2h-2v-2h-2v-7l-8-2v2l-6-2v-4h-4c-2.442-2.17-3.858-3.802-4.25-7.113 0-1.964.117-3.927.25-5.887h2l1-4c-.976.095-1.952.19-2.957.29-1.272.11-2.545.22-3.856.335l-3.832.352C90 414 90 414 87 412l-.5-2.063L86 408l-3-1v-2h-2c-1.188-3.188-1.188-3.188-2-7 1.375-2.938 1.375-2.938 3-5a480.028 480.028 0 0 0-3.813-1.5l-2.144-.844c-2.161-.809-2.161-.809-5.043-.656v-2h-2c-2.29-3.435-2.178-4.985-2-9 3.722-2.112 6.87-2.381 11.074-2.656L80 376l1-2h4c2.748-1.282 2.748-1.282 5-3v-2c-7.885-.453-15.05.389-22.125 4.121-2.598 1.218-4.174.66-6.875-.121l-2-1v-6l5 1 1-2-1-3-1.688.625c-3.683.597-6.13-.81-9.124-2.875-1.738-2.56-1.389-4.738-1.188-7.75h-3c-1.591-4.177-2.213-7.532-2-12h4v-2c.922-.09.922-.09 1.863-.184l2.45-.253 2.425-.247c2.423-.269 2.423-.269 5.262-1.316a66.008 66.008 0 0 1 4.063 0c4.21 0 7.623-1.094 11.937-1zm22 58v2h-6l-1 3-7 1 1 5c3.716.2 4.772.152 8-2 3.024-1.938 5.513-3.213 9-4a88.354 88.354 0 0 0 4-2v-2c-3.984-.691-3.984-.691-8-1zm20 20v2l-2.688.25c-5.333 1.207-8.304 4.317-11.312 8.75l2 2c3.1-.322 3.1-.322 6-1v-2l2.125-.188c2.862-.808 3.845-1.467 6-3.375C126 417 126 417 129 417v-4h-8zm2 14 1 3v-3h-1zm24 2v3h2l-1-3h-1zm-11.824 6.777-1.863 1.16L130 439l1 5h5l1-3 2-1c.652-2.025.652-2.025 1-4-2.829-1.311-2.829-1.311-4.824-.223z" fill="#454545"/><path d="M313.688 381.688 317 382l.875 2.25c1.046 2.699 1.046 2.699 2.313 4.938L321 391l-1 2h2l1 7h1c.027 2.917.047 5.833.063 8.75l.025 2.5.01 2.422.016 2.222C324 418 324 418 323.467 420.099c-.618 2.517-.088 4.417.533 6.901h2c2 2 2 2 2 6l1-2h3l-1-9h-1v-8l4-1v8h2v14h-2l-1 3c-3.563 1.188-3.563 1.188-7 2v-2l-4-1v-3h-2l.063 2.938C320 440 320 440 319 441l-.313 3.438C318 448 318 448 316.188 449.375 312 450.571 312 450.571 310 451v2h-2v2h-5v-2l-3 1v-3h-3l-1 2h-2v6h-2l-2 4h-4l-2-6h-2l.188 2.188c-.225 3.374-1.187 5.118-3.188 7.812h-2v2h-7v-4h-2a559.991 559.991 0 0 1-.063-4.313l-.035-2.425C268 456 268 456 269 453c-.41-2.054-.41-2.054-1-4v-2l-1-2-2 1a88.406 88.406 0 0 0-1 5l-1 2a61.388 61.388 0 0 0-.098 4.133l.01 2.441.026 2.551.013 2.574c.012 2.1.03 4.2.049 6.301l-7 1 1-11h-2l-1 4h-2l1 3c-5.211 6.568-5.211 6.568-9.363 7.57-3.23.074-5.559.07-8.383-1.605-1.998-3.132-1.646-6.437-1.566-10.027l-.01-2.221c.055-5.45.055-5.45 2.322-7.717l-1-2 1-3h2l.25-1.75c.988-2.964 2.288-4.35 4.75-6.25 2.25.25 2.25.25 4 1l1-2c4.884 4.662 4.884 4.662 5.195 8.262l-.07 2.425-.055 2.45L253 455h3v-16h8l1-2c6.151-1.48 6.151-1.48 8.875.063 2.653 4.568 2.197 8.935 1.125 13.937l2 1-2 5 4 2-1-3 1-1 .438-3.125C280 448 280 448 281.125 444.687c1.48-6.237.32-12.492-1.125-18.687l-2.188 1.063c-3.124 1.041-4.694.828-7.812-.063l2-1 .25-1.875c.75-2.125.75-2.125 3.813-3.875L279 419l-1-1a103.711 103.711 0 0 1-.188-5.938l-.042-3.277C278 406 278 406 280 404c2.125.375 2.125.375 4 1l1 5h1l1 6 2.313-1.563L292 413l3 1v5c-6.75 4-6.75 4-9 4v3h2l.148 2.605A229.826 229.826 0 0 0 291 453l.5-3.75.281-2.11c.287-2.445.287-2.445.219-6.14h2l-.176-3.324c-.047-1.455-.092-2.909-.137-4.363l-.126-2.186c-.095-4.156.118-5.7 2.709-9.147C299 420 299 420 303 420l1-2h6l.586 2.816c1.926 9.164 1.926 9.164 4.414 18.184.204-7.98.22-15.296-2-23l-1-1a99.984 99.984 0 0 1 0-5h-2c-1.125-4.75-1.125-4.75 0-7l-2-1a74.583 74.583 0 0 1-.813-7.25l-.193-2.027c-.415-5.955.158-10.482 6.693-11.036zM314 390v5h2v-5h-2zm3 5c-1.329 5.918-.665 8.777 2 14h1c.11-5.682.165-9.253-3-14zm-14 30-3 2c-.471 2.743-.178 5.196 0 8l1 1c.53 2.28.963 4.572 1.402 6.871.465 2.322.465 2.322 2.598 4.129l3 1c1.055-3.987.959-6.99 0-11l-2-3a97.813 97.813 0 0 1 0-7h-2l-1-2zm-58 23c-2.706 3.833-3.326 6.325-3 11h-1l-1 7c1.542-1.375 1.542-1.375 3-3v-2l2-1c2.199-3.298 2.34-6.098 2-10l-2-2zm2 0 1 2zm48 1 1 2z" fill="#4F4F4F"/><path d="M233.125 417c1.875 2 1.875 2 1.875 5l2 1v19h-2l.125 2.813C235 448 235 448 233 451h-2v4h-2v2h-2v3h-2l-.66 1.703c-1.782 3.055-4.04 4.822-6.778 7.047l-2.933 2.422C212 473 212 473 209 473v2c-10.543 2.997-19.488 4.128-30.25 1.438-2.949-2.423-3.926-5.784-4.75-9.438.313-3 .313-3 1-5a88.406 88.406 0 0 1 5-1c1 1 1 1 1.098 2.848L181 470h3l-1-3 3-2c1.008-2.179 1.008-2.179 1.688-4.625l.761-2.477L189 456l-4-1v-2l-4-1v-3h-2c-1.496-7.666-1.416-13.025 2-20h2v-3l4-1v-4c3-2 3-2 6-2l1-3c10.487-7.37 28.665-5.694 39.125 1zM207 417v2l-2.75.375c-2.84.546-4.776 1.198-7.25 2.625v2l-4 1v2h-2v2h-2v3h-2c-2.326 3.634-2.163 6.77-2 11h2v4l7 1 .875-2.188a382.69 382.69 0 0 1 2.063-5.062c1.495-3.87 2.773-7.807 4.062-11.75l8-1v7h-2v3h-2c-2.201 3.804-2.201 3.804-3 8h3v7h-2v2h-6v4h-2c-2.152 3.228-2.2 4.284-2 8h-2l-1 5c3.65 1.352 5.528.553 9-1h2l1-2c2.563-.625 2.563-.625 5-1v-2l2.313-.813c2.577-1.138 3.957-2.001 5.687-4.187v-2h2v-2h2c1.56-1.877 1.56-1.877 3.063-4.25l1.597-2.39c1.246-2.194 1.87-3.905 2.34-6.36l.563-2.125c.513-1.879.513-1.879.437-3.875l2-1c.207-5.065-.139-9.254-2-14-1.968-1.36-1.968-1.36-4-2l-1-2c-2.41-1.247-2.41-1.247-5-2l-2 1v-2c-3.113 0-5.108.174-8 1z" fill="#494949"/><path d="M98 387c1.75-.054 3.5-.093 5.25-.125l2.953-.07c2.817.196 4.406.75 6.797 2.195v2h2v3l2 1v3h2l-2 5h-6v2l-7 3h5l1 2 1.652-.656c5.651-2.087 10.36-2.669 16.348-2.344h3v2h2v2l4 2v2h2c.125 4.75.125 4.75-1 7a502.64 502.64 0 0 1-6 2 97.457 97.457 0 0 0-5 3l2 2 1-2 1.75 1c2.449 1.27 2.449 1.27 6.25 1l.938-1.875L141 423c5.064-1.326 10.239-1.514 14.938 1.063 1.751 3.194 1.719 6.394 1.062 9.937-1.625 2-1.625 2-4 3-3.25.188-3.25.188-6 0l.125 2.313C147 442 147 442 145 445h-2v2h-2v2c-1.583.054-3.166.093-4.75.125l-2.672.07c-2.692-.204-4.277-.83-6.578-2.195v-2h-2v-2h-2v-7l-8-2v2l-6-2v-4h-4c-2.442-2.17-3.858-3.802-4.25-7.113 0-1.964.117-3.927.25-5.887h2l1-4-2.957.29c-1.272.11-2.545.22-3.856.335l-3.832.352C90 414 90 414 87 412l-.5-2.063L86 408l-3-1v-2h-2c-1.125-3.313-1.125-3.313-2-7l2-3 2 1-.188 2.813c-.111 3.142-.111 3.142 1.563 5C86.001 405.07 86.001 405.07 88 406l1-4 2.625.25c4.165-.309 6.024-1.846 9.375-4.25 2.125-.688 2.125-.688 4-1l2.25-.563L109 396v-2h-7l-1-2c3.033-.229 5.975-.365 9 0 2.063 2 2.063 2 3 4-1.08-3.646-1.08-3.646-3.781-6.125-2.386-.94-4.42-1.275-6.969-1.5l-2.422-.227L98 388v-1zm23 26v2l-2.688.25c-5.333 1.207-8.304 4.317-11.312 8.75l2 2c3.1-.322 3.1-.322 6-1v-2l2.125-.188c2.862-.808 3.845-1.467 6-3.375C126 417 126 417 129 417v-4h-8zm2 14 1 3v-3h-1zm24 2v3h2l-1-3h-1zm-11.824 6.777-1.863 1.16L130 439l1 5h5l1-3 2-1c.652-2.025.652-2.025 1-4-2.829-1.311-2.829-1.311-4.824-.223z" fill="#292929"/><path d="m340.5 337.75 3.469.047C347 338 347 338 350 339v2l1.875.938L356 344v3h2c2.152 3.228 2.2 4.284 2 8h2v20h-2v4c-2.313.625-2.313.625-5 1l-3-2c-.58-3.38-.005-4.99 1.563-8.063 2.417-5.083 1.173-10.54.437-15.937h-2l-2-6h-2v-2h-2v-2c-5.05-.938-5.05-.938-10 0v2h-2v2h-2v5h-2c.14 2.146.287 4.292.438 6.438.08 1.194.162 2.39.246 3.62-.007 2.828-.007 2.828 1.316 3.942.04 2 .043 4 0 6h2v6h2c2 3 2 3 2 6h2v4h2v2h2v2h2l.75 1.875c1.509 2.565 2.583 2.906 5.25 4.125l8 4v2c2.02-.602 4.021-1.273 6-2l1-2h2l.813-2.563C371 395 371 395 372.688 391.625c1.642-4.537 1.108-6.929.312-11.625l1-2h-2l-1-6 2-1 5 2v24h-2l-.438 2.313C375 402 375 402 374 405h-2v2c-5.603 3.735-11.411 3.707-18 3-2.367-1.02-2.367-1.02-4-2v-2l-2.313-.375C345 405 345 405 342 403v-3l-1.875-.25C338 399 338 399 336.937 397.125L336 395c-1.541-1.71-1.541-1.71-3-3l1-2h-2v-2h-2v-4h-2c-4.752-13.16-6.62-23.886-1-37l1-3h2l1-3c2.555-3.694 5.235-3.346 9.5-3.25z" fill="#585858"/><path d="M72 294c7.622-.595 14.157.458 21 4 2.32 2.016 2.32 2.016 4 4v2h2v2h2c4.869 9.09 7.676 17.458 5.375 27.813-2.03 3.229-3.948 4.505-7.375 6.187-4.753.657-7.952.698-12-2v-2h-2v-6h7c2.064-.328 2.064-.328 4-1l1-2h2v-3h2v-4h-2v-5l-2-1v-2l-4-2v-2h-2v-2c-2.08-.39-4.165-.762-6.25-1.125l-3.516-.633c-3.284-.246-4.599-.137-7.234 1.758l-1 2h-2l-.852 2.621a175.208 175.208 0 0 1-3.523 9.442c-.4 1.001-.8 2.003-1.21 3.035C63.921 326.16 62.31 328.5 60 331c-2.875.813-2.875.813-6 1l-3 .188c-3.29-.206-5.93-1.019-9-2.188v-2l-2.25-.438c-5.13-2.914-6.214-8.954-8-14.312-1.008-4.367-1.375-6.875.5-11C34 300 34 300 36.188 299.187L38 299v2l3 1-.938 2.625c-1.314 4.176-2.353 7.629-1.624 12 2.846 4.326 7.794 5.786 12.562 7.375h2l.813-2.188c1.568-3.714 3.657-6.976 5.812-10.375 1.278-2.265 1.771-3.946 2.375-6.437a200.157 200.157 0 0 1 3-6h2l1-2 3-1 1-2z" fill="#3E3E3E"/><path d="m378 316 6 1v2h2v2h2v3h4v-2l4 2c.042 2.333.04 4.667 0 7-1 1-1 1-4.563 1.063L388 332v2h2l1 2 3 1 2 2a200.785 200.785 0 0 0 6 3v5h-2v3c-4.75.125-4.75.125-7-1l2 4h1v6l-4 2 .25 2.75c-.25 3.25-.25 3.25-1.75 5.688-3.799 2.374-6.168 1.47-10.5.562l-2-1v-2l-2.23-.2c-4.653-1.344-6.489-4.749-9.145-8.613-2.601-5.102-2.868-9.628-1.625-15.187 1.998-3.95 5.355-6.57 9-9h-2l-1-5 3-1v-2h3l-.625-3.313C376 319 376 319 378 316zm-2 19-2 2h2v2h2v2h2v2h2l1 3 3-1c-.791-2-.791-2-2-4l-3-1c-.688-2.063-.688-2.063-1-4-1.892-.681-1.892-.681-4-1zm-6 11v2h2v3h2v3h2l1 3 2 2 1.875 2.063c2.15 1.96 3.298 2.533 6.125 2.937l1-4-2.313-1.75C383 356 383 356 381.375 353.75L380 352h-3v-2c-2.07-2.587-3.757-3.44-7-4zm16 1v2l2-1-2-1z" fill="#393939"/><path d="m306 104 4 1 .418 2.18a127.803 127.803 0 0 0 1.894 7.945l.676 2.57c1.265 2.882 2.271 3.761 5.012 5.305 3.632 1.129 7.289 2.025 10.98 2.938L332 127l1 3c-2.624.837-5.249 1.67-7.875 2.5l-2.262.723C317.227 135 317.227 135 315 135c-3.144 8.833-3.144 8.833-5 18l1 2-3 1-1-2a78.037 78.037 0 0 0-5-2l4-1-1.938-6.313-1.09-3.55A306.013 306.013 0 0 0 301 135a88.01 88.01 0 0 0-7.938-2c-7.794-1.598-7.794-1.598-10.062-5l1.688-.55c1.599-.528 3.195-1.063 4.789-1.606a120.668 120.668 0 0 1 4.796-1.5c3.38-1.056 5.404-1.91 7.54-4.781 1.705-5.116 2.988-10.308 4.187-15.563z" fill="#54C3E0"/><path d="M230 415c3.125 2 3.125 2 5 4v3l2 1v19h-2v6l-1-2h-2l-.563 2.438c-4.864 12.056-16.271 21.525-27.984 26.535-7.471 2.222-15.32 2.327-22.453-.973v-2l2.668.07 3.52.055 3.48.07c3.265-.191 5.36-.938 8.332-2.195l2 1 1-3c1.704-.754 3.413-1.501 5.148-2.18 3.362-1.489 6.198-3.512 7.852-6.82h2v-2h2l.813-2.25C221 452 221 452 222.563 449.937c1.547-2.085 1.84-3.443 2.437-5.937.54-1.375 1.082-2.75 1.625-4.125 1.703-5.11 1.865-9.677.375-14.875-2.816-3.754-5.51-5.665-10-7h-2v-2l-2 2c-2.242.16-2.242.16-4.875.063-3.27-.113-5.981-.006-9.125.937v-4c9.273-5.299 21.441-4.264 31 0z" fill="#404040"/><path d="M313.688 381.688 317 382l.875 2.25c1.046 2.699 1.046 2.699 2.313 4.938L321 391l-1 2h2l1 7h1c.027 2.917.047 5.833.063 8.75l.025 2.5.01 2.422.016 2.222C324 418 324 418 323.467 420.099c-.618 2.517-.088 4.417.533 6.901h2c2 2 2 2 2 6l1-2h3l-1-9h-1v-8l4-1v8h2v14h-2l-1 3c-3.563 1.188-3.563 1.188-7 2v-2l-1.906-.25c-2.094-.75-2.094-.75-3-2.5L320.5 433c-1.225-4.235-2.83-8.081-4.73-12.055C315 419 315 419 315 416l-3-1v-5h-2c-1.125-4.75-1.125-4.75 0-7l-2-1a74.583 74.583 0 0 1-.813-7.25l-.193-2.027c-.415-5.955.158-10.482 6.693-11.036zM314 390v5h2v-5h-2zm3 5c-1.329 5.918-.665 8.777 2 14h1c.11-5.682.165-9.253-3-14z" fill="#363636"/><path d="M91 368c2.679.362 4.61.74 6.875 2.25C99 372 99 372 98.813 374.5c-1.035 3.182-2.013 5.066-5 6.688-3.364.971-6.33.949-9.813.812v2l-6-1v3c3.27.968 6.28 1.15 9.684 1.21 1.092.03 2.185.058 3.31.087 2.292.052 4.583.096 6.875.133l3.315.093 3.017.06c3.254.485 5.176 1.45 7.799 3.417.688 2.625.688 2.625 1 5l2 1c-1.938-.313-1.938-.313-4-1l-1-3-9-1v3l-2.813.313c-3.337.72-4.038 1.232-6.187 3.687l-3 1-2-1 1 7c-4.875-1.75-4.875-1.75-6-4a77.923 77.923 0 0 1-.063-4.625l.028-2.477L82 393a480.028 480.028 0 0 0-3.813-1.5l-2.144-.844c-2.161-.809-2.161-.809-5.043-.656v-2h-2c-2.29-3.435-2.178-4.985-2-9 3.722-2.112 6.87-2.381 11.074-2.656L80 376l1-2h3c2.336-.317 4.67-.648 7-1v-5z" fill="#373737"/><path d="m145 475 6 1v3l4-1v2l2.625.75c3.652 1.352 6.38 2.754 9.375 5.25.72 3.598-.16 5.894-2 9h-4l-2-8h-2v-2h-3c-1.717 2.445-1.717 2.445-3 5h2v2h2v-3h4l-2 8h-2v4h-4l-1-6h-3l-.438 1.875C146 499 146 499 145 501l4 1v2l5 1 .813-1.938C156 501 156 501 159 500l2 4-2 3h-2v4h-4v-2h-4v-2l-1.625-.313c-3-.868-5.613-2.243-8.375-3.687v-2h-4v-2h-2l1-4 4 1 3-7h2l.313-1.625c.868-3 2.243-5.613 3.687-8.375h-2v-4z" fill="#2A2A2A"/><path d="m247 440 4 2v2l2 2c.195 2.164.195 2.164.125 4.625l-.055 2.477L253 455l4 1v5h-2l-1 4h-2l1 3c-5.211 6.568-5.211 6.568-9.363 7.57-3.23.074-5.559.07-8.383-1.605-1.998-3.132-1.646-6.437-1.566-10.027l-.01-2.221c.055-5.45.055-5.45 2.322-7.717l-1-2 1-3h2l.25-1.75c.988-2.964 2.288-4.35 4.75-6.25 2.25.25 2.25.25 4 1v-2zm-2 8c-2.706 3.833-3.326 6.325-3 11h-1l-1 7c1.542-1.375 1.542-1.375 3-3v-2l2-1c2.199-3.298 2.34-6.098 2-10l-2-2zm2 0 1 2z" fill="#454545"/><path d="M398 299c1.875.188 1.875.188 4 1 1.25 2.563 1.25 2.563 2 5h2l.875 2.438c.858 2.695.858 2.695 3.125 3.562.08 1.79.14 3.583.188 5.375l.105 3.023L410 322c-3.42 2.28-4.682 2.22-8.688 2.125l-3.011-.055L396 324l-.816-1.93c-1.73-3.026-3.925-3.139-7.184-4.07l-3-2v-2h-2c-2.421-4.843-3.55-7.577-2-13 1.807-1.807 4.504-1.173 6.938-1.188l3.277-.042C394 300 394 300 396 302l2-3zm-10 7v2h2v2l4 1v2h4l1 2v-3h-2l-1-3-3 1-1-4h-4zm16 6v6l2-1-1-5h-1z" fill="#464646"/><path d="M154.938 423.5c2.16 2.618 2.446 3.326 2.625 6.563C157 434 157 434 155.375 436c-2.929 1.233-5.228 1.215-8.375 1l.125 2.313C147 442 147 442 145 445h-2v2h-2v2c-1.583.054-3.166.093-4.75.125l-2.672.07c-2.692-.204-4.277-.83-6.578-2.195v-2h-2c-.613-7.234-.613-7.234 2.25-10.813L130 432l2.063-1.813C134 429 134 429 138 429l.938-1.875C141 423 141 423 142.625 422.375c4.62-.73 8.063-1.045 12.313 1.125zM147 429v3h2l-1-3h-1zm-11.824 6.777-1.863 1.16L130 439l1 5h5l1-3 2-1c.652-2.025.652-2.025 1-4-2.829-1.311-2.829-1.311-4.824-.223z" fill="#3B3B3B"/><path d="M302 189h1c.897 4.457.962 8.442.742 12.973-.05 8.304 2.171 14.807 5.383 22.464.51 1.27 1.018 2.541 1.523 3.813a904.53 904.53 0 0 0 2.997 7.418c1.712 4.21 3.331 8.45 4.918 12.707l1.316 3.46c1.189 3.356 2.168 6.737 3.121 10.165l1 3c.528 6.23-.21 10.878-4 16-2.563 1.563-2.563 1.563-5 2l-3-1v-6l6-1c.416-8.597-1.491-15.36-4.695-23.281l-1.06-2.635L311 246c-1.925-4.783-3.84-9.569-5.746-14.36-.587-1.47-1.177-2.942-1.769-4.411-3.966-9.854-7.37-19.073-8.11-29.792l-.227-3.128L295 192h5c-1 2-1 2-2 3 .287 2.34.62 4.674 1 7l-.125-3.375C299 195 299 195 301 193c.643-2.069.643-2.069 1-4zm0 8v5h1v-5h-1zm-2 8c-1.552 3.104-.076 5.736.938 8.875l.671 2.116c2.723 8.346 6.054 16.452 9.391 24.567 1.693 4.136 3.346 8.29 5 12.442 1.416-4.25-.315-7.125-1.895-11.105l-.931-2.419c-.987-2.558-1.986-5.11-2.986-7.663-.989-2.536-1.975-5.072-2.955-7.61-.61-1.58-1.225-3.157-1.846-4.732-1.85-4.771-3.24-9.483-4.387-14.471h-1zm17 48 1 3zm1 3 1 2z" fill="#818282"/><path d="m279 404 5 1 1 5h1l1 6 2.313-1.563L292 413l3 1v5c-6.75 4-6.75 4-9 4v3h2l.184 2.957.253 3.856.247 3.832c.188 3.347.188 3.347 1.316 6.355.07 2.228.085 4.458.063 6.688l-.028 3.574L290 456h2l1-2c-.75 4.75-.75 4.75-3 7h-3c-2.17-6.77-2.982-13.577-3.855-20.613l-.364-2.746-.31-2.484c-.395-2.438-.395-2.438-2.471-5.157v-4l-2.188 1.063c-3.124 1.041-4.694.828-7.812-.063l2-1 .25-1.875c.75-2.125.75-2.125 3.813-3.875L279 419l-1-1c-.099-1.977-.13-3.958-.125-5.938l-.008-3.277C278 406 278 406 279 404z" fill="#303030"/><path d="M98 387c1.75-.054 3.5-.093 5.25-.125l2.953-.07c2.817.196 4.406.75 6.797 2.195v2h2v3l2 1v3h2l-2 5h-6v2l-7 3h5l2 4-1.426 1.172c-3.256 2.723-6.229 5.24-8.574 8.828v-5h2l1-4-2.957.29c-1.272.11-2.545.22-3.856.335l-3.832.352C90 414 90 414 87 412l-.5-2.063L86 408l-3-1v-2h-2c-1.125-3.313-1.125-3.313-2-7l2-3 2 1-.188 2.813c-.111 3.142-.111 3.142 1.563 5C86.001 405.07 86.001 405.07 88 406l1-4 2.625.25c4.165-.309 6.024-1.846 9.375-4.25 2.125-.688 2.125-.688 4-1l2.25-.563L109 396v-2h-7l-1-2c3.033-.229 5.975-.365 9 0 2.063 2 2.063 2 3 4-1.08-3.646-1.08-3.646-3.781-6.125-2.386-.94-4.42-1.275-6.969-1.5l-2.422-.227L98 388v-1z" fill="#555"/><path d="m118 133 4 1 .297 1.863c.82 4.863.82 4.863 3.266 9.012 3.704 1.71 7.534 2.949 11.437 4.125v2l-2.336.734-3.039 1.016-3.023.984c-2.992 1.456-3.519 2.197-4.602 5.266l-.852 2.14-.773 2.11L121 167l-3-1c-.781-2.398-.781-2.398-1.5-5.375-.878-3.042-.878-3.042-2.5-5.625-2.914-1.408-5.444-1.964-8.637-2.438L103 152l-1-3 2.082-.621 2.73-.816 2.708-.81c1.835-.557 3.66-1.146 5.48-1.753 1.033-2.792 1.033-2.792 1.688-6.063l.761-3.347L118 133z" fill="#5FC6E0"/><path d="M306 479v9l2.813-.313L312 488c1.875 2.5 1.875 2.5 3 5h-2l.688 2.75c.312 3.25.312 3.25-.938 5.625C311 503 311 503 308 503v2l-3.75.125-2.11.07C300 505 300 505 296 503v-10h-4v-2l-4-2 2-6h2v-3c2.237-1.119 3.958-1.34 6.438-1.625.782-.095 1.564-.19 2.37-.29C303 478 303 478 306 479zm-10 4c-.25 2.416-.25 2.416 0 5l3 2 3-2v-3h-2v-2h-4zm7 9-1 5 2 1 1 3 3-2v-4h-2v-2l-3-1z" fill="#D2D2D2"/><path d="M172 279c1.915-.108 3.833-.186 5.75-.25l3.234-.14c3.654.473 4.738 1.582 7.016 4.39l-2 2 3 5h-2c.567 4.13.567 4.13 2 8l-1.875 2.688c-3.504 5.654-2.959 12.846-3.125 19.312h-1v-16h-8l-1-3c-2.504-1.219-2.504-1.219-5-2l.781-5.86c.287-2.445.287-2.445.219-6.14 2.226-2.05 4.293-3.646 7-5-4.296-.016-4.296-.016-7.25 2.5L167 287v-4l5-2v-2zm3 5v1l8 1v-2h-8zm9 1 1 2z" fill="#C7C7C7"/><path d="m209.625 497.938 2.477.027L214 498c-.14 2.646-.287 5.292-.438 7.938l-.119 2.287c-.33 5.662-.33 5.662-1.443 6.775a235.648 235.648 0 0 0-1 7h2v5l-2.25-.563c-2.7-.429-4.196-.288-6.75.563l-1-2-2.75.25c-3.25-.25-3.25-.25-5.563-1.813-2.239-3.234-2.618-5.517-2.687-9.437 1.214-2.876 2.261-4.446 4.75-6.313 3.119-.952 6.012-.812 9.25-.687l-1-6h-2v-2c2.405-1.203 3.95-1.1 6.625-1.063zM200 511c-1.176 3.674-1.074 7.17-1 11 4.06-2.038 4.06-2.038 6-6-.88-2.657-.88-2.657-2-5h-3z" fill="#444"/><path d="M249 499c3 2 3 2 3.512 4.164l.175 2.461c.1 1.226.1 1.226.2 2.477L253 510h-2v3h-2v3h-2l-1 3 4 1v-6l5 1c.195 6.055.195 6.055 0 8-2 2-2 2-3.91 2.16l-2.153-.097L245 525l-1 1c-5.53.235-5.53.235-8-1v-4h2v-3h2v-2h2v-2h2v-3h2v-6h-2v-3h-3v2h2v7h-7c-1.551-7.412-1.551-7.412 0-11 4.952-3.01 7.763-3.5 13-1z" fill="#A9A9A9"/><path d="m266 494 3 1v2l1.906.516C273 499 273 499 273.97 502.484c.196 1.42.373 2.842.531 4.266l.336 2.133c.493 4.015.293 5.848-1.508 9.61C271 521 271 521 268.641 521.585l-2.391-.211-2.422-.164L262 521l-2-4h-2v-2h-2v-8h-2v-4h2v-6h2v-2c2.746-1.373 4.959-1.124 8-1zm-4 4c-2.015 4.774-2.079 7.372-.375 12.25l1.04 3.14c1.467 2.867 2.345 3.576 5.335 4.61v-2h2v-3h-2l.563-2.313c.665-2.777.665-2.777-.563-5.687h-2l-.313-2.375c-.463-2.955-.463-2.955-3.687-4.625z" fill="#7A7A7A"/><path d="m369 339 2 4-3 1 1 1c2.054-.41 2.054-.41 4-1l1 2h-4v2h2v3h2v3l1.875.313C378 355 378 355 380 358c2.264 1.924 4.339 3.67 7 5v-4h8l-1 2h-2l.25 2.75c-.25 3.25-.25 3.25-1.75 5.688-3.799 2.374-6.168 1.47-10.5.562l-2-1v-2l-2.23-.2c-4.65-1.344-6.486-4.749-9.149-8.605-2.513-4.952-3-9.803-1.621-15.195 2.047-2.348 2.047-2.348 4-4z" fill="#4D4D4D"/><path d="M268 195h1c.695 3.14 1.35 6.288 2 9.438l.578 2.603c1.75 8.66 1.619 17.178 1.422 25.959l-.05 2.516c-.123 6.183-.283 12.365-.45 18.547l-.145 5.548c-.116 4.463-.235 8.926-.355 13.389h-1l-.031-2.059c-.109-7.106-.223-14.212-.341-21.317-.043-2.648-.085-5.296-.125-7.944-.058-3.818-.122-7.636-.187-11.453l-.05-3.556c-.118-6.606-.475-13.11-1.266-19.671l-1 1c.322 1.669.658 3.335 1 5 .128 2.011.213 4.026.265 6.04l.102 3.622.098 3.889c.038 1.341.076 2.682.116 4.024.165 5.678.321 11.356.469 17.034.09 3.482.19 6.963.295 10.444.056 1.956.103 3.912.15 5.868.192 6.331.639 12.015 2.505 18.079h2l-1.563-2.313L272 277l1-3c4 6.75 4 6.75 4 9h6l-1 5-6-1v-2l-1.875-.313C272 284 272 284 270 281c-4.442-14.516-3.111-31.108-2.904-46.11.155-12.092-.55-23.24-4.096-34.89v-2h5v-3zm-3 4 2 3v-3h-2zm2 3v3z" fill="#7E7D7D"/><path d="m129 406 2 1v2h2v2l4 2-1 2a88.406 88.406 0 0 1-5 1l-2 1v-4l-2.875.563C123 414 123 414 121 413v2c-5.75 2-5.75 2-8 2l-1 3a90.223 90.223 0 0 1-4 4l1.813.438c1.749.45 3.474.99 5.187 1.562l-4 1v6l-2 1v-4h-4c-2.375-2.063-2.375-2.063-4-5 .337-3.707 1.006-6.003 3.672-8.676a83.9 83.9 0 0 1 3.77-2.965c1.846-1.378 1.846-1.378 2.558-4.359 5.2-1.764 9.749-2.188 15.215-1.973 1.81.18 1.81.18 2.785-1.027z" fill="#4F4F4F"/><path d="M232 446h1v5h-2v4h-2v2h-2v3h-2l-.66 1.703c-1.782 3.055-4.04 4.822-6.778 7.047l-2.933 2.422C212 473 212 473 209 473v2c-10.543 2.997-19.488 4.128-30.25 1.438-2.949-2.423-3.926-5.784-4.75-9.438.313-3 .313-3 1-5a88.406 88.406 0 0 1 5-1c1 1 1 1 1.098 2.848L181 470h3l-1-3 4-1v2h2l3-6h1v5h-2v6c-7.75.125-7.75.125-10-1 .78 2.138.78 2.138 2.664 2.594 11.73 2.04 20.398-.155 30.336-6.594 8.065-5.88 13.551-13.102 18-22z" fill="#EBEBEB"/><path d="M79 335c1.125 6.75 1.125 6.75 0 9l-2.422-.07c-7.756-.128-14.977.536-22.578 2.07l1 5c-3.228-.96-4.741-1.661-6.813-4.375C47 344 47 344 47 340h4v-2c.922-.09.922-.09 1.863-.184l2.45-.253 2.425-.247c2.423-.269 2.423-.269 5.262-1.316a66.008 66.008 0 0 1 4.063 0c4.21 0 7.623-1.094 11.937-1z" fill="#3A3A3A"/><path d="M173 498v2l4 1v6h-2l.188 3.875c.105 2.18.105 2.18-.188 4.125-3.893 2.595-5.513 1.866-10 1a89.247 89.247 0 0 1-4-1v-2h-2l2-8h2l.313-1.813c1.67-5.313 4.456-5.536 9.687-5.187zm-8 11v2h2l1 2 2-2-5-2z" fill="#848484"/><path d="m289 486-.496 2.074c-.568 3.3-.6 6.392-.567 9.738l.028 3.52L288 504l1.95.844C292 506 292 506 292.812 508.5 293 511 293 511 292 513h-6v-2h-2v-18h-2l-1 2c-2.237 2.386-4.264 4.176-7 6l-1-6h-1v-5h6v-2c1.266-.532 2.538-1.05 3.813-1.563l2.144-.878C286 485 286 485 289 486z" fill="#D2D2D2"/><path d="M110.125 389.188c2.296 2.219 2.466 3.705 2.875 6.812l2 1c-1.938-.313-1.938-.313-4-1l-1-3-9-1v3l-2.813.313c-3.337.72-4.038 1.232-6.187 3.687l-3 1-2-1 1 7c-4.875-1.75-4.875-1.75-6-4-.625-2.75-.625-2.75 0-6 7.773-7.027 18.001-10.66 28.125-6.813z" fill="#323232"/><path d="M371 338c4.584.847 6.9 3.598 10 6.875 4.688 4.911 4.688 4.911 10 9.125l1-2 4 1v6c-4.063.894-6.427 1.212-10.375-.25C383 357 383 357 382 354l-3-1-2-1v-2l-3-1c-.688-2.063-.688-2.063-1-4h-3l-2 3-1-4 3-2c.724-2.06.724-2.06 1-4z" fill="#434343"/><path d="m372 371 6 2v24h-2l-.438 2.313C375 402 375 402 374 405h-2v2c-5.603 3.735-11.411 3.707-18 3-2.367-1.02-2.367-1.02-4-2v-2l2.375.5c7.893 1.3 7.893 1.3 15.496-.406 3.53-2.747 5.49-5.995 7.129-10.094v-2l-7 11-4-1c1.375-1.5 1.375-1.5 3-3h2l.813-2.563C371 395 371 395 372.688 391.625c1.642-4.537 1.108-6.929.312-11.625l1-2h-2a128.624 128.624 0 0 1-1-6l1-1z" fill="#6B6B6B"/><path d="m324 100 3 1 1.188 2.875c2.56 4.416 5.006 4.707 9.812 6.125v3l-1.863.41c-4.835 1.156-4.835 1.156-8.403 4.348-.92 2.125-.92 2.125-1.734 5.242-2-1-2-1-3.188-4.438-1.49-3.908-1.49-3.908-5.5-5L314 113v-4l8-1 .438-2.875C323 102 323 102 324 100z" fill="#82D3E4"/><path d="m79.688 348.938 3.011.027L85 349l1 7-3.25-.063c-3.512-.09-3.512-.09-5.875.625-2.498.583-4.416.053-6.875-.562l-1 2-11-1v2l-4-1c.875-4.75.875-4.75 2-7 5.067-.874 9.858-1 15-1 3.15-1.05 5.388-1.101 8.688-1.063z" fill="#3E3E3E"/><path d="M183 500h6v5l4 2v2h-6l-1 9 5-2v5c-1.625.027-3.25.046-4.875.063l-2.742.035C181 521 181 521 179 520c-.75-2.313-.75-2.313-1-5l1.063-2 .937-2a124.97 124.97 0 0 0-2-5c.375-2.313.375-2.313 1-4l4 1v-3z" fill="#8A8A8A"/><path d="M305 419h4c3.423 7.01 6 15.158 6 23l2 1-1 5-6 1c-1-2.868-1.931-5.638-2.5-8.625-.368-2.369-.368-2.369-1.563-4.188-1.444-3.37-.995-6.532-.937-10.187l-1-3c.438-2.188.438-2.188 1-4z" fill="#393939"/><path d="m203 412 2 2-2.438.813L200 416l-1 3 1.75-1c2.25-1 2.25-1 6.25-1v2l-1.863.55c-.809.252-1.617.504-2.45.762l-2.425.739c-2.376.997-3.508 2.113-5.262 3.949h-2v2h-2v2h-2v3h-2v5h-1l-1 6h2l-1 4c-2.113-3.17-2.233-3.892-2.125-7.5l.055-2.344L184 435c.224-2.925.224-2.925-1-5l1.438-1.688c1.724-2.224 1.724-2.224 2.062-4.937C187 421 187 421 190 419h3l1-3c2.825-1.985 5.522-3.64 9-4z" fill="#686868"/><path d="M257 440h4l.438 2.25c.315 1.543.657 3.083 1.091 4.597.549 2.508.584 4.789.569 7.356l-.01 2.969-.026 3.078-.013 3.125c-.012 2.542-.028 5.083-.049 7.625l-7 1 1-32z" fill="#232323"/><path d="m340.5 337.75 3.469.047C347 338 347 338 350 339v2l1.875.938L356 344v3h2l-1 4c-1.02-1.609-1.02-1.609-2.063-3.25-3.305-4.574-6.787-7.157-12.386-8.21A93.074 93.074 0 0 0 336 339l-.938 2.938C334 345 334 345 333 346a235.648 235.648 0 0 0-1 7h-2v12c-1.644-3.287-2.413-5.48-3-9h-2v13c-3.043-4.565-1.896-8.747-1-14 .824-2.792 1.849-5.314 3-8l1-3h2l1-3c2.555-3.694 5.235-3.346 9.5-3.25z" fill="#B8B8B8"/><path d="M316 384h2a135.916 135.916 0 0 1 3 7l-1 2h2l1 7h1c.054 2.938.094 5.875.125 8.813l.05 2.525.02 2.432.032 2.237C324 418 324 418 322 421l-1-6-2 1-1-8h1c.089-3.199-.09-5.927-1-9h-1l-2 3-1-7h2v-5h-2l1 3h-2v-7l4 2-1-4z" fill="#6E6E6E"/><path d="M148 492c1.938.75 1.938.75 4 2 .75 2.125.75 2.125 1 4l4-5v4h-2v4h-4l-1-6h-3l-.438 1.875C146 499 146 499 145 501l4 1v2l5 1 .813-1.938C156 501 156 501 159 500l2 4-2 3h-2v4h-4v-2h-4v-2l-1.625-.313c-3-.868-5.613-2.243-8.375-3.687v-2l4 1 .813-2.75c1.083-2.965 2.17-4.867 4.187-7.25z" fill="#ACACAC"/><path d="M273 211c2.336 3.504 2.27 4.976 2.319 9.124l.06 3.821.035 4.13c.019 1.407.038 2.816.059 4.224.051 3.704.09 7.407.128 11.111.04 3.781.091 7.561.141 11.342.097 7.416.181 14.832.258 22.248l-2 1-1-4 .5 2.313C274 279 274 279 274 282c-3.745-3.745-3.69-7.983-4-13h1l1-36h1l1-17-2-1 1-4zm0 46v11h1v-11h-1z" fill="#BBD9DD"/><path d="M183 287c1.938 1.125 1.938 1.125 3 3 .188 3.688.188 3.688 0 7h-3c-2.773.849-5.404 1.702-8 3-1.5-1-1.5-1-3-3-.499-2.75-.503-5.25 0-8 3.057-4.036 6.442-3.16 11-2z" fill="#080808"/><path d="M268 217h1l.062 2.11c.197 6.59.402 13.181.617 19.771.11 3.387.216 6.775.316 10.162.116 3.903.243 7.805.372 11.707l.101 3.653c.216 6.164.742 11.686 2.532 17.597h2l-1.563-2.313L272 277l1-3c4 6.75 4 6.75 4 9h6l-1 5-6-1v-2l-1.875-.313C272 284 272 284 270 281c-4.406-14.4-3.044-30.598-2.563-45.438.054-1.81.107-3.62.159-5.431.127-4.377.263-8.754.404-13.131z" fill="#575757"/><path d="m263 120 2.938 2.25 1.652 1.266c1.72 1.81 1.908 3.061 2.41 5.484 1.003 2.287 2.077 4.531 3.16 6.781C274 138 274 138 274 142l2 1c.45 2.434.45 2.434.688 5.438l.261 2.996C277 154 277 154 276 156c-2-1-2-1-2.938-3.438a249.54 249.54 0 0 1-1.68-5.832c-1.56-5.568-3.596-10.437-6.394-15.503C264 129 264 129 264 125c-.933-2.2-.933-2.2-2-4l1-1z" fill="#9C9C9C"/><path d="m250 444 3 2c.293 2.164.293 2.164.188 4.625l-.083 2.477L253 455l4 1v5h-2l-1 4h-2l1-2.875c1.102-2.896 1.102-2.896 1-5.125l-.918 2.047c-4.44 9.453-4.44 9.453-9.082 11.953-2.313-.25-2.313-.25-4-1v-2l5-3v-2l-2 3-2-1 1.438-2.375c.901-1.514 1.774-3.049 2.562-4.625l1-2c.04-1.666.044-3.334 0-5l2-1v10c2.053-4.106 2.222-5.802 2.125-10.25l-.055-3.266L250 444z" fill="#DFDFDF"/><path d="M54 345c2.784 1.392 2.979 3.156 4 6l-1.5 1.25c-1.934 1.872-1.934 1.872-1.5 5.75l3 1v-2h4v2l2.75-.125c3.128.12 4.636.516 7.25 2.125l1-2 1 4c-3.203 2.834-5.78 3.52-10 4l1-2-1-3-1.688.625c-3.683.597-6.13-.81-9.124-2.875-1.738-2.56-1.389-4.738-1.188-7.75h-3l-2-6c2 0 2 0 4.125 2L53 350v-1c.324-1.336.657-2.67 1-4z" fill="#979797"/><path d="m207 508-1 3-1-1c-4.64-.409-4.64-.409-8.938 1.063-1.617 2.949-1.248 5.646-1.062 8.937l4 2 5-4c-.267-2.934-.267-2.934-1-6l-3-2c4.875.875 4.875.875 6 2 .072 2.02.084 4.042.063 6.063l-.028 3.347L206 524h3l1-9h1v7h2v5l-2.25-.563c-2.7-.429-4.196-.288-6.75.563l-1-2-2.75.25c-3.25-.25-3.25-.25-5.563-1.813-2.239-3.234-2.618-5.517-2.687-9.437 1.202-2.848 2.304-4.433 4.688-6.375 3.593-.971 6.656-.234 10.312.375z" fill="#B3B3B3"/><path d="m71 378-2 6 4 3 1-4h4v3c2.91.845 5.414 1.084 8.438 1 3.332-.044 6.314.162 9.562 1-2.682 1.788-5.303 3.201-8.188 4.625l-2.73 1.352L83 395l-1-2c-1.778-.907-1.778-.907-3.875-1.625-.699-.26-1.397-.52-2.117-.79-2.14-.725-2.14-.725-5.008-.585v-2h-2c-2.29-3.435-2.178-4.985-2-9 2-1 2-1 4-1z" fill="#646464"/><path d="M378 318c2.438.375 2.438.375 5 1l1 2h4v3h4v-2l2 1c.042 2.333.04 4.667 0 7-1 1-1 1-3.188 1.375-4.103-.547-5.809-2.581-8.812-5.375 1.207 2.415 2.603 4.691 4 7h-3c-3.155-3.422-5.332-7.293-5.313-12l.313-3z" fill="#272727"/><path d="M305 489c3.679.245 5.441.37 7.938 3.188 1.297 3.433 1.073 5.314.062 8.812l-2 2h-3v2c-7.75.125-7.75.125-10-1-.45-1.996-.45-1.996-.688-4.438l-.261-2.433C297 495 297 495 298 493h2l3 7h5c.874-1.736.874-1.736 1-4-1.892-2.636-1.892-2.636-4-5v-2z" fill="#383838"/><path d="M147 422c6.252.59 6.252.59 8.938 2.063 1.751 3.194 1.719 6.394 1.062 9.937-1.625 2-1.625 2-4 3-3.25.188-3.25.188-6 0l.125 2.313C147 442 147 442 145 445l-2-1 1-2c.077-1.729.137-3.458.188-5.188.45-5.905 2.47-8.922 6.812-12.812l-4-2zm0 7v3h2l-1-3h-1z" fill="#7A7A7A"/><path d="m260 307 3 2c.28 2.914.28 2.914.145 6.625l-.066 2.005c-.05 1.405-.106 2.811-.17 4.216a469.38 469.38 0 0 0-.231 6.353c-.582 16.364-.582 16.364-2.678 21.801l-3 2c-1.28-2.558-.851-4.476-.58-7.257.707-7.3.467-13.212-1.826-20.29-.63-2.604-.48-3.96.406-6.453l.586 2.152.789 2.786.773 2.777c.619 2.452.619 2.452 2.852 3.285v-22z" fill="#A7DFE9"/><path d="M181 462v8h3l-1-3 4-1v2h2l3-6h1v5h-2v6c-7.75.125-7.75.125-10-1l-1 2c-2.438-1.063-2.438-1.063-5-3-1.482-6.035-1.482-6.035 0-9 3.51-1.245 3.51-1.245 6 0z" fill="#757575"/><path d="M177.188 280.875 181 281l-1.625.75c-3.273 1.723-6.744 3.619-9.375 6.25-.43 3.709-.507 7.298 0 11 2.279 2.748 2.279 2.748 5 4h-2l1 3c-4.511-1.418-7.268-3.098-10-7-.42-4.034-.29-7.96 0-12h4l.813-1.875c2.076-3.715 4.381-4.38 8.375-4.25z" fill="#8A8A8A"/><path d="M306 479c.293 6.055.293 6.055 0 8l-3 2v-4h-3v-2l-3 2 2 7c-2.804.227-4.462.34-6.875-1.188C291 489 291 489 291 486.625c1.35-3.541 3.049-5.264 6-7.625 3.667-1.027 5.376-1.208 9 0z" fill="#B3B3B3"/><path d="M180 307h2l1 13h1a3522.89 3522.89 0 0 1 1.5 8.75l.434 2.5.41 2.422.38 2.222C187 338 187 338 187 342l2 1-3 3-2-1c-4.057-12.41-4.172-25.054-4-38z" fill="#6E6E6E"/><path d="M301 199h1l.445 2.281c1.787 8.46 4.506 16.295 7.631 24.334 1.82 4.7 3.6 9.413 5.361 14.135l1.11 2.888 1.012 2.721.915 2.421c.585 2.467.344 3.85-.474 6.22-3.514-8.275-6.834-16.615-10.022-25.02-.737-1.941-1.48-3.88-2.224-5.818l-1.426-3.752-1.284-3.37c-1.498-4.362-2.175-8.252-2.106-12.852l.027-2.395L301 199z" fill="#737373"/><path d="M132 430c3.125.375 3.125.375 6 1v2l-2.938 1.688c-3.429 2.076-3.429 2.076-3.937 6.062L131 444h5v1l-2.25.438c-2.27.464-4.508.98-6.75 1.562v-2h-2c-.615-7.256-.615-7.256 2.375-10.875L130 432l2-2z" fill="#373737"/><path d="M314 416c2.065 3.098 3.562 6.184 5.125 9.563l1.633 3.503C322 432 322 432 322 434h-2l.063 2.938C320 440 320 440 319 441l-.313 3.438C318 448 318 448 316.188 449.375 312 450.571 312 450.571 310 451l2-4 4 1 1-5-3-1 1-2c.338-8.046.12-16.023-1-24z" fill="#676767"/><path d="M266 266h1l.375 2.813c.44 3.326.44 3.326 2.625 6.187l-.063 2.938c.08 3.9 1.398 5.397 4.063 8.062l2-1v2h3v2h3l1-6h-6l1-2c2.375-.125 2.375-.125 5 0 2 2 2 2 2.25 4.5C285 288 285 288 283 290c-2.625.125-2.625.125-5 0v-2h-7l1 6c-6.613-7.816-6.154-18.297-6-28z" fill="#99DAE8"/><path d="M118 133c1.938.375 1.938.375 4 1 1.478 2.957 1.06 5.742 1 9h-2l-1-2-3 1-1 5-7 2 1 3 4 2-11-2-1-3 2.082-.621 2.73-.816 2.708-.81c1.835-.557 3.66-1.146 5.48-1.753 1.033-2.792 1.033-2.792 1.688-6.063l.761-3.347L118 133z" fill="#A6DEEA"/><path d="m107 406-3 3 5-1 2 4-1.426 1.172c-3.256 2.723-6.229 5.24-8.574 8.828v-5h2l1-4-14 1v-3l1.684-.336c3.593-1.03 6.704-2.922 9.976-4.703C104 405 104 405 107 406z" fill="#D6D6D6"/><path d="M153 478h2v2l2.625.75c3.652 1.352 6.38 2.754 9.375 5.25.72 3.598-.16 5.894-2 9h-4l-2-8h-2v-2l-4-2 3-1-5-2 2-2z" fill="#606060"/><path d="M269 495v2l1.938.688C273 499 273 499 273.75 501.063c.955 11.222.955 11.222-1.75 15.937h-1l-.805-3.395-1.07-4.418-.527-2.236c-.843-3.448-1.61-5.97-3.598-8.951-2.563-.73-2.563-.73-5-1v-1c6.75-1 6.75-1 9-1z" fill="#454545"/><path d="M260 497h5c3.953 5.998 5.486 12.016 7 19l1-3h2c-1.75 5.75-1.75 5.75-4 8-2.164.195-2.164.195-4.625.125l-2.477-.055L262 521v-3h2v-2l3 1 1-1h2v-3h-2v-8h-2l-.875-2.438c-.858-2.695-.858-2.695-3.125-3.562l-1 4h-2l1-6z" fill="#D6D6D6"/><path d="M249 499v3l-1-1c-2.333-.04-4.667-.042-7 0v3h2v7h-7c-1.551-7.412-1.551-7.412 0-11 4.953-3.01 7.734-3.44 13-1z" fill="#A8A8A8"/><path d="M377 379h1v18h-2l-.438 2.313C375 402 375 402 374 405h-2v2c-5.603 3.735-11.411 3.707-18 3-2.367-1.02-2.367-1.02-4-2v-2l2.375.5c8.787 1.295 8.787 1.295 17-1.375 6.896-6.994 7.334-16.847 7.625-26.125z" fill="#E7E7E7"/><path d="m188 305 2 1-2 2c-.601 7.671-.05 15.392 1 23l1-2h2c.027 1.625.046 3.25.063 4.875l.035 2.742C192 339 192 339 191 341l-3-1c-1.044-3.133-.934-3.99 0-7l-2-1a99.768 99.768 0 0 1-1-6l-.625-2.313L184 322l1-1c.286-3.59.45-7.18.621-10.777C186 307 186 307 188 305z" fill="#E6F7F8"/><path d="M376 337v2h2v2h2v2h2l1 2 1-1-1-3-2-1v-2l-2-1 2-1 6 4-2 1 1.566 2.555c.66 1.095 1.318 2.191 1.997 3.32l2.003 3.305L392 353l-1 2a5504.488 5504.488 0 0 1-5.688-5.188l-1.607-1.462-1.592-1.455-1.591-1.451c-1.45-1.375-2.811-2.84-4.167-4.307-2.319-2.585-2.319-2.585-6.355-2.137v-2c2.49-1.245 3.41-.777 6 0zm10 10v2l2-1-2-1z" fill="#EFEFEF"/><path d="m398 299 4 1c-1 2-1 2-3 3l1.496 1.504c4.232 4.487 6.374 7.265 6.504 13.496l-4 1-.156-1.723c-.914-6.22-3.017-9.045-7.871-12.964-3.24-2.156-5.875-2.43-9.66-2.375l-2.45.027L381 302l1-2c1.958-.054 3.916-.093 5.875-.125l3.305-.07C394 300 394 300 396 302l2-3zm6 13v6l2-1-1-5h-1z" fill="#DCDCDC"/><path d="M193 152c2.438.375 2.438.375 5 1l1 2-4-1v30h12v1l-12 1c-5.215-7.822-4.182-18.074-3-27l.297-2.309c.214-1.566.455-3.13.703-4.691z" fill="#C9EBEF"/><path d="M302 189h1c.953 4.763 1.083 9.167 1 14l-2 1v-5l-.938 3.75L299 211c-2.01-3.445-2.598-6.701-3.188-10.625l-.542-3.477C295 194 295 194 296 192h4c-1 2-1 2-2 3 .287 2.34.62 4.674 1 7l-.125-3.375C299 195 299 195 301 193c.643-2.069.643-2.069 1-4z" fill="#AFB4B5"/><path d="M386.125 300.688c7.3.588 11.296 4.348 15.906 9.628L403 312l-1 3-1.688-2.5c-2.061-2.775-2.061-2.775-5.062-2.813L393 310v-2l-2-1-2-1.563c-1.86-1.632-1.86-1.632-4-1.437l-2 2c-.563-1.938-.563-1.938-1-4 1-1 1-1 4.125-1.313z" fill="#2E2E2E"/><path d="m181 147-.492 3.176c-.747 5.99-.653 11.984-.633 18.012l-.012 3.521.004 3.396.004 3.068c.124 2.712.52 5.186 1.129 7.827l-10-1v-1h7l-.016-2.766c-.017-3.402-.03-6.803-.039-10.204-.005-1.47-.012-2.939-.02-4.408-.013-2.118-.018-4.235-.023-6.352l-.016-3.857C178 153 178 153 179 148h-21v-1c7.803-1.21 15.156-.725 23 0z" fill="#D7F1F3"/><path d="M282 433h1l4 28 5-2-2 4h-4l-2-6h-2v-6l-2 3c-.168-3.44.015-6.051 1-9.375 1.14-4.134 1.15-7.362 1-11.625z" fill="#CECECE"/><path d="M285 410h1l1 6 2.313-1.563L292 413l3 1v5c-6.75 4-6.75 4-9 4l-1 2c-.953-4.767-1.164-9.16-1-14l1-1z" fill="#8D8D8D"/><path d="M286 487c-.246 1.86-.246 1.86-1 4-1.848 1.266-1.848 1.266-4.063 2.25l-2.222 1.016L277 495v5l-3 1-1-6h-1v-5h6v-2c2.928-.976 4.956-1.082 8-1z" fill="#6A6A6A"/><path d="M186 283c1.875 0 1.875 0 4 1 2.152 3.996 3.775 7.458 3 12-1.518 4.211-2.731 7.308-6.75 9.5l-2.25.5 2-3.438c2.27-4.556 2.831-8.536 2-13.562-1.332-2.98-1.332-2.98-3-5l1-1z" fill="#3F3F3F"/><path d="M187 191c2.03 3.046 3.076 5.753 4.313 9.188 1.543 4.127 3.134 7.82 5.562 11.5L199 215l-1 2-7-10-2 2c-2.02-4.393-3.409-8.153-4-13h2v-5z" fill="#717171"/><path d="m294 437 2 1c1.481 4.444 2.397 8.582 1.125 13.125L296 453h-2v6l-2-1v-2h-2l.438-2.266c.185-.984.37-1.97.562-2.984l.563-2.953c.54-2.984.54-2.984.437-6.797h2v-4zm1 12 1 2z" fill="#898989"/><path d="M276 309h1c.075 4.338.13 8.675.165 13.013.015 1.47.035 2.94.061 4.41.369 21.185.369 21.185-5.226 29.577-2-3-2-3-1.625-6.188L271 347l1 3h2c-.474-2.44-.942-4.814-1.688-7.188L272 341l2-2 2 1v-31z" fill="#E9F4F5"/><path d="M264 437h4l-1 3 2 1c.625 2.563.625 2.563 1 5l-2 1-1-2-2 1a530 530 0 0 0-1 5l-2 2v-7h-1v-6h-4l-1 4v-5h8v-2z" fill="#A9A9A9"/><path d="M207 417v2l-1.863.55c-.809.252-1.617.504-2.45.762l-2.425.739c-2.376.997-3.508 2.113-5.262 3.949h-2v2h-2v2h-2v3h-2v5h-1l-1 6h2l-1 4c-2.725-4.087-2.857-7.201-2-12 4.073-8.828 12.804-18 23-18z" fill="#E7E7E7"/><path d="M322 267h1c.584 9.922.584 9.922-3 14-2.5 1.375-2.5 1.375-5 2l-3-1v-6l7-2v2h2l1-9z" fill="#555"/><path d="M173 498v2l4 1v6h-2l-1 2a279.31 279.31 0 0 1-3.438-2.313l-1.933-1.3C167 504 167 504 166 501l-1-2c2.709-1.354 5.01-1.065 8-1z" fill="#EFEFEF"/><path d="M127 425v3l2 1 1-2 3 1c-1.16 2.845-2.263 4.244-4.563 6.375-2.76 2.973-3.16 4.648-3.437 8.625h-2v-7l-4-2 9-3-3-1c-1.188-2.063-1.188-2.063-2-4 2-1 2-1 4-1z" fill="#D2D2D2"/><path d="M54 345c2.784 1.392 2.979 3.156 4 6l-1.5 1.25c-1.934 1.872-1.934 1.872-1.5 5.75l7 4c-2 1-2 1-4.438.25-4.003-1.953-4.003-1.953-5.562-4.25-.188-3.188-.188-3.188 0-6h-3l-2-6c2 0 2 0 4.125 2L53 350v-1c.324-1.336.657-2.67 1-4z" fill="#DBDBDB"/><path d="M172 279c1.915-.108 3.833-.186 5.75-.25l3.234-.14c3.654.473 4.738 1.582 7.016 4.39-2.645 1.322-4.678 1.097-7.625 1.063l-3.04-.028L175 284l2-2c-4.296-.016-4.296-.016-7.25 2.5L167 287v-4l5-2v-2z" fill="#A7A6A6"/><path d="M321 258c2.748 5.312 3.097 9.102 3 15h-3v3h-2c-1.73-10.81-1.73-10.81 0-16h2v-2z" fill="#B9B9B9"/><path d="M313.688 381.688 317 382c-1.378 2.756-3.371 3.489-6 5-1.524 1.524-1.17 2.88-1.188 5 .034 4.174.694 7.928 1.75 11.957C312 406 312 406 312 410h-2c-1.125-4.75-1.125-4.75 0-7l-2-1a74.583 74.583 0 0 1-.813-7.25l-.193-2.027c-.415-5.955.158-10.482 6.693-11.036z" fill="#E4E4E4"/><path d="M248 500c1.938 1.125 1.938 1.125 3 3 .5 2.875.5 2.875 0 6-2.5 2.875-2.5 2.875-5 5l.035-2.152.028-2.786.035-2.777c.161-2.25.161-2.25-1.098-3.285-2.333-.04-4.667-.042-7 0 2.7-3.813 5.61-3.47 10-3z" fill="#212121"/><path d="M304 418h6l1 4h-2v-3h-4l1 8h-6l-1-2-3 1v-4c3-2 3-2 7-2l1-2z" fill="#B3B3B3"/><path d="M277 146c8.789.34 16.689.89 25 4l-4 2v-2l-18-2v6l3 1-1 1h-5v-10z" fill="#CFEAED"/><path d="M148 492c1.938.75 1.938.75 4 2 .75 2.125.75 2.125 1 4l4-5v4h-2v4h-4l-1-6h-3l-.438 1.875C146 499 146 499 145 501l4 1v2l-6-2c1.156-3.912 2.355-6.875 5-10z" fill="#ECECEC"/><path d="M85 330h5l-1 2h-2c.844 2.663.844 2.663 3 5 3.779.897 7.392.762 10.922-.91 1.824-1.173 1.824-1.173 4.078-3.09v3c-4.229 3.795-7.503 4.43-12.95 4.336C90 340 90 340 87 338v-2h-2v-6z" fill="#E9E9E9"/><path d="M265 264h1c.337 2.395.67 4.791 1 7.188.095.673.19 1.347.29 2.04.493 3.619.823 7.12.71 10.772h-2c-1.727-2.188-1.727-2.188-3.625-5l-1.914-2.813L259 274l2-1v2l4-1v-10z" fill="#82D2E1"/><path d="M177.188 280.875 181 281l-1.625.75c-4.249 2.236-7.687 4.218-10.375 8.25l-.5 3.625L168 297l-2 1c-.384-4.804-.48-8.09 1.813-12.438 2.969-3.478 4.863-4.835 9.375-4.687z" fill="#191919"/><path d="m150 487 1 3h2v2h2v-3h4c-.574 3.877-2.427 6.115-5 9l-2 1-.313-2.375c-.463-2.955-.463-2.955-3.687-4.625l2-5z" fill="#898989"/><path d="M314 416c2.065 3.098 3.562 6.184 5.125 9.563l1.633 3.503C322 432 322 432 322 434h-2v6l-2 1-1-11h-1c-1.336-4.842-2.253-8.934-2-14z" fill="#EAEAEA"/><path d="M192 462h1v5h-2v6l-3.875.188-2.18.105L183 473l-2-3h3l-1-3 4-1v2h2l3-6z" fill="#E2E2E2"/><path d="M316 384h2l3 7-2 1v-2h-2l.625 2.063c.476 3.725-.448 6.407-1.625 9.937-1.46-2.647-2-3.894-2-7h2v-5h-2l1 3h-2v-7l4 2-1-4z" fill="#C2C2C2"/><path d="M219 106c1.678.272 3.345.615 5 1a117.08 117.08 0 0 0 7-1v2l2-1c2-.04 4-.043 6 0v2h-24l4-3z" fill="#BCBCBC"/><path d="M218.875 519.813C222 520 222 520 225 522l-2 5h-6l-2-6c1-1 1-1 3.875-1.188z" fill="#A4A4A4"/><path d="m207 508-1 3-1-1c-4.64-.409-4.64-.409-8.938 1.063-1.676 3.057-1.427 5.528-1.062 8.937 1.354 1.944 1.354 1.944 3 3l-1 2c-2.924-2.358-3.935-3.76-4.938-7.438-.07-4.006.406-5.506 2.938-8.562 3.7-3.015 7.6-1.733 12-1z" fill="#F1F1F1"/><path d="m294 479 3 1-2.563 2.188c-2.786 2.548-2.786 2.548-2.25 5.625L293 490l6 2c-.875 7.625-.875 7.625-2 11h-1v-10h-4v-2l-4-2 2-6h2v-3l2-1z" fill="#EFEFEF"/><path d="m145 475 6 1c-1.484 4.451-3.7 8.243-6.125 12.25l-1.633 2.703L142 493l-2-2 1-2h2l.313-1.625c.868-3 2.243-5.613 3.687-8.375h-2v-4z" fill="#E7E7E7"/><path d="M245 443h5c1.744 5.233 1.679 10.88 0 16.125L249 461l-2-1 .07-3.21c.02-1.389.037-2.777.055-4.165.017-.699.034-1.397.05-2.117.018-1.837-.072-3.674-.175-5.508l-2-2z" fill="#090909"/><path d="M181 285v1l-3.438.938c-3.35.691-3.35.691-4.562 2.062a91.472 91.472 0 0 0-.063 5.063l.028 2.785L173 299l2 1h-5c-1.174-3.522-.662-5.394 0-9v-4c2.489-4.51 6.673-2.78 11-2z" fill="#EEE"/><path d="M286 493c2.108 4.216 2.177 6.398 2 11l3 1v6l-5-1v-17z" fill="#797979"/><path d="m89 387 7 1c-2.682 1.788-5.303 3.201-8.188 4.625l-2.73 1.352L83 395l-1-2a128.606 128.606 0 0 0-7-2v-2l15 1-1-3z" fill="#EDEDED"/><path d="M385 341c5.04.445 7.376 2.713 11 6l-4 1 1 4-2 1a983.483 983.483 0 0 1-3-4.875l-1.688-2.742C385 343 385 343 385 341z" fill="#4D4D4D"/><path d="M251 501c1.858 3.135 2.201 5.375 2 9h-2v3h-2v3h-2v5h-6c6-8 6-8 7.691-10.035 1.94-2.913 1.438-5.552 1.309-8.965l1-1z" fill="#EEE"/><path d="m107 406-3 3 5-1v4l-15-1c3.753-3.753 7.65-6.783 13-5z" fill="#CFCFCF"/><path d="M365 352h2c1.262 1.758 1.262 1.758 2.688 4.125 3.2 4.985 6.95 9.194 12.312 11.875v2l-4-1v-2l-2.23-.164c-3.783-1.142-4.848-3.004-7.082-6.211l-2.114-2.96C365 355 365 355 365 352z" fill="#ECECEC"/><path d="M294 167c1.938.625 1.938.625 4 2 .563 2.563.563 2.563 1 6a149.42 149.42 0 0 0 1.563 4.563c1.138 3.271 1.776 5.933 1.437 9.437-2-1-2-1-2.781-2.82l-.719-2.305-.777-2.457c-.619-2.07-1.206-4.15-1.786-6.23-.77-2.623-1.608-4.815-2.937-7.188l1-1z" fill="#C8E5EA"/><path d="M236 454c1.533 3.065 1.103 6.268 1.063 9.625l-.014 2.14c-.012 1.745-.03 3.49-.049 5.235l7 2v2c-6.386.361-6.386.361-8.71-1.008-2.034-3.143-1.682-6.439-1.602-10.055l-.01-2.22c.055-5.45.055-5.45 2.322-7.717z" fill="#CBCBCB"/><path d="m250 444 3 2c.293 2.164.293 2.164.188 4.625l-.083 2.477L253 455l4 1v5h-2l-1 4h-2l1-2.875c1.102-2.896 1.102-2.896 1-5.125l-2 3h-2v-16z" fill="#E2E2E2"/><path d="m201 113 4 1c-2.747 2.83-5.53 5.477-8.563 8-2.87 2.419-5.205 4.965-7.437 8 .488-4.395 1.83-6.022 5-9 1.235-2.133 1.235-2.133 2-4h3l2-4z" fill="#B5B5B5"/><path d="m378 316 6 1v2h2l-1 3-1.25-1.438c-1.95-1.741-3.239-2.028-5.75-2.562.285 1.418.578 2.834.875 4.25l.492 2.39c.625 2.328 1.481 4.25 2.633 6.36l-1.75-.938c-2.093-.988-3.995-1.579-6.25-2.062v-2h3l-.625-3.313C376 319 376 319 378 316z" fill="#D7D7D7"/><path d="m306 104 4 1c.597 2.763 1 5.16 1 8h-2l-1-2-4 5c.553-4.03 1.156-8.02 2-12z" fill="#B4E3EB"/><path d="M199 510v13c-4-2-4-2-5-3-.47-6.338-.47-6.338 1.375-8.938C197 510 197 510 199 510z" fill="#0D0D0D"/><path d="M215 416c5.899.354 8.905 1.714 13 6 2.292 4.688 2.176 8.893 2 14l-2 1 .125-3.063c-.134-4.207-.411-7.08-2.125-10.937-3.395-2.91-6.47-5-11-5v-2z" fill="#E0E0E0"/><path d="m269 163 5 1-1.938 1.313c-2.33 1.6-2.33 1.6-3.062 4.687-.27 3.354-.445 6.707-.621 10.066C268 183 268 183 266 185c-.081-2.917-.14-5.832-.188-8.75l-.076-2.5c-.074-6.173-.074-6.173 1.776-9.328.49-.47.982-.939 1.488-1.422z" fill="#DCE9EA"/><path d="M263 120c5.785 4.062 5.785 4.062 6.875 8.813L270 132l-2-1 1 5-3-4-1.75-2c-1.25-2-1.25-2-.813-4.063L264 124l-2-3 1-1z" fill="#ABABAB"/><path d="M380 324c2 0 2 0 4.563 2.438L387 329c1.066 1.296 1.066 1.296 3.563 1.063L393 330l2-6h1c.042 2.333.04 4.667 0 7-1 1-1 1-4.563 1.063L388 332l-1 2c-1.17-1.477-2.336-2.957-3.5-4.438l-1.969-2.496C380 325 380 325 380 324z" fill="#D3D3D3"/><path d="m214 498-1 9h-1v-7l-4 1v6l-2-1c-.625-2.563-.625-2.563-1-5h-2v-2c3.43-1.715 7.217-1.054 11-1z" fill="#E2E2E2"/><path d="m328 106 5.176 2.246c1.581.654 3.2 1.213 4.824 1.754v3l-8 1c-1.765-3.088-2-4.233-2-8z" fill="#A7DEEA"/><path d="M273 513h2c-1.75 5.75-1.75 5.75-4 8-2.164.195-2.164.195-4.625.125l-2.477-.055L262 521v-3h2v-2l2.875.563c3.024.724 3.024.724 5.125-.563l1-3z" fill="#BDBDBD"/><path d="M298 493h2l1.313 3.313c1.182 2.781 2.295 4.75 4.687 6.687-5.35.357-5.35.357-7.938-1.063-1.679-3.062-.748-5.63-.062-8.937z" fill="#131313"/><path d="m146 429 1 3h2l1-2v3l-1 1 4 2c-2.076.553-3.844 1-6 1l.125 2.313C147 442 147 442 145 445l-2-1 1-2c.203-1.83.365-3.664.5-5.5.389-5.278.389-5.278 1.5-7.5z" fill="#D3D3D3"/><path d="M273 422h2v2h-2v2l2.875-1.5C279 423 279 423 281 423c1.354 2.709 1.065 5.01 1 8l-2-1v-4l-2.188 1.063c-3.124 1.041-4.694.828-7.812-.063l2-1c.652-2.025.652-2.025 1-4z" fill="#F0F0F0"/><path d="m81 395 2 1-.188 2.813c-.1 3.112-.1 3.112 1.438 4.937 1.844 1.317 3.683 2.324 5.75 3.25l-2 5-.813-1.938C86.114 407.67 86.114 407.67 83 407v-2h-2c-1.125-3.313-1.125-3.313-2-7l2-3z" fill="#E2E2E2"/><path d="m96 364-4 1v2l2 1-2 1c-.656 2.527-.656 2.527-1 5l-6 1 2.5-1.875L90 371v-2l-4-1c2.839-4.258 5.186-4.13 10-4z" fill="silver"/><path d="m326 105 2 1v4l2 1v3c-3 2-3 2-6 2l-1-4h2l-1-3c.938-2.188.938-2.188 2-4z" fill="#38B9DA"/><path d="m250 514 5 1c.195 6.055.195 6.055 0 8-2 2-2 2-5.625 2.125L246 525v-2h7l-1-3h-2v-6z" fill="#EAEAEA"/><path d="M139 425h3l-2 11-3.438.375L133 437l-1 2v-3c3.333-3 3.333-3 6-3v-2l-4-2h4l1-4z" fill="#EEE"/><path d="m334 413-1 18h-1l-1-9h-1v-8c3-1 3-1 4-1z" fill="#9E9E9E"/><path d="M277 281c2.875-.125 2.875-.125 6 0 2 2 2 2 2.25 4.5C285 288 285 288 283 290c-2.625.125-2.625.125-5 0v-2h-5l1-3h2v2h3v2h3l1-6h-6v-2z" fill="#CAD9DA"/><path d="M293 483c2.661 2.484 4.6 4.619 6 8v1c-2.804.227-4.462.34-6.875-1.188C291 489 291 489 291.25 486.375 292 484 292 484 293 483z" fill="#2F2F2F"/><path d="M323 400h1c.054 2.938.094 5.875.125 8.813l.05 2.525.02 2.432.032 2.237C324 418 324 418 322 421c-1.153-6.342-1.095-12.567-1-19h2v-2z" fill="#6C6C6C"/><path d="M99 316h2c1.555 3.11 1.286 5.563 1 9-1.688 3.375-1.688 3.375-4 6-2.75.875-2.75.875-5 1l-1-2 1.938-.375L96 329l1-2h2v-3h2v-4h-2v-4z" fill="#D6D6D6"/><path d="M319 252c1.625 1.625 1.625 1.625 3 4-.75 3.063-.75 3.063-2 6l-1 3c-.838-1.622-1.67-3.248-2.5-4.875l-1.406-2.742C314 255 314 255 314 253l4 1 1-2zm-1 4 1 2z" fill="#878887"/><path d="M153 482c5.288 1.813 8.886 4.329 12 9v4h-4l-2-8h-2v-2l-4-2v-1z" fill="#F3F3F3"/><path d="M247 450h1v13h-3l-2 3-2-1 1.438-2.375c.901-1.514 1.774-3.049 2.562-4.625l1-2v-2.563c0-2.437 0-2.437 1-3.437z" fill="#B0B0B0"/><path d="M396 309c3.161 1.37 3.993 1.99 6 5v4c-3.999-.615-6.804-2.603-10-5v-2h2v2l5 1-3-5z" fill="#E6E6E6"/><path d="m269 294 2 3 2-3c3.444 9.41 3.444 9.41 3 14l-3 1-1-5 1 2 1-1a88.406 88.406 0 0 0-1-5l-2 2c-1.765-3.088-2-4.233-2-8z" fill="#D4E1E3"/><path d="m273 143 1 2h2c.195 1.457.38 2.916.563 4.375l.316 2.46C277 154 277 154 276 156c-2-1-2-1-3.188-3.688-.87-3.548-.65-5.792.188-9.312z" fill="#6B6B6B"/><path d="m112 148-3 1 1 3 4 2-11-2-1-3c6.286-2.429 6.286-2.429 10-1z" fill="#AEE1EB"/><path d="M282 449h1c-.43 6.012-1.563 10.952-5 16l-3 2v-3h2l.313-3.688c.456-3.741 1.49-6.199 3.687-9.312l1-2z" fill="#353535"/><path d="M306 479c.293 6.055.293 6.055 0 8l-3 2-1.438-3.375c-.815-1.892-1.64-3.782-2.562-5.625 5.875-1 5.875-1 7-1z" fill="#252525"/><path d="m294 437 2 1c.703 2.18.703 2.18 1.25 4.875l.578 2.68C298 448 298 448 296 451c-1.354-2.709-1.065-5.01-1-8h-2l-1 2v-4h2v-4z" fill="#E2E2E2"/><path d="M282 433h1c.853 3.674 1.108 7.045 1.063 10.813l-.028 2.957L284 449h-2l-1 5h-1c-.168-3.44.015-6.051 1-9.375 1.14-4.134 1.15-7.362 1-11.625z" fill="#D9D9D9"/><path d="M373 389h2c-1.004 6.61-2.79 10.792-7 16l-4-1c1.375-1.5 1.375-1.5 3-3h2l.875-2.625L373 389z" fill="#E2E2E2"/><path d="m276 281 1 2h6l-1 5-6-1v-2l-2-1h2v-3z" fill="#161618"/><path d="M249 499v3l-1-1c-5.019-.386-7.907.023-12 3v-4c5.154-2.68 7.453-3.57 13-1z" fill="#EDEDED"/><path d="m181 472 2.137.496c2.96.521 5.674.603 8.675.567l2.958-.028L197 473v3a398.51 398.51 0 0 1-5.188.125l-2.917.07c-3.023-.204-5.163-.926-7.895-2.195v-2z" fill="#080808"/><path d="m395 339 7 3v5h-2v3h-5l1-2h3v-4c-2.419-2.269-2.419-2.269-5-4l1-1z" fill="#EEE"/><path d="M64 321c1 3 1 3 .215 4.79-3.457 4.968-3.457 4.968-7.153 6.147L54 332l-3.25.188C48 332 48 332 46 330l2.23-.078c6.204-.33 6.204-.33 11.833-2.735 1.782-2.012 2.958-3.694 3.937-6.187z" fill="#D0D0D0"/><path d="M381 303h1l.41 1.758c1.74 6.315 4.245 9.508 9.59 13.242l-3 1c-2.188-1.313-2.188-1.313-4-3v-2h-2c-3.077-6.4-3.077-6.4-2.688-9.438L381 303z" fill="#E8E8E8"/><path d="M38 299v2l2 1-5 1-2 11c-1.901-3.803-2.49-4.981-2-9 3-6 3-6 7-6z" fill="#F2F2F2"/><path d="m177 472 1.617.621c5.797 2.096 11.24 3.007 17.383 3.379v1c-6.697 1.057-12.921 1.647-19-2v-3z" fill="#D7D7D7"/><path d="m115 355 1 4c-3.508 1.964-7.147 2.91-11 4l-1 1c-1.666.04-3.334.043-5 0 2.648-3.413 5.573-3.832 9.688-4.688l3.574-.761L115 358v-3z" fill="#DCDCDC"/><path d="M179 346c2.19 3.285 2.998 6.207 4 10l-3 3c-3.065-6.253-3.065-6.253-2.75-9.875C178 347 178 347 179 346zm0 5 1 3v-3h-1z" fill="#DCE4E4"/><path d="M310 144c1.12 3.36.72 5.58 0 9l1 2-3 1-1-2a78.037 78.037 0 0 0-5-2l4-1 1-4v3h2l1-6z" fill="#CEEDF1"/><path d="M200 510c4.875.875 4.875.875 6 2 .23 2.859.415 5.203 0 8-1.813 2.063-1.813 2.063-4 3l-3-1 5-4c-.267-2.934-.267-2.934-1-6l-3-2z" fill="#F3F3F3"/><path d="m313 499-2 4h-3v2c-7.75.125-7.75.125-10-1v-2l3.688.75c3.536.47 4.054.424 7.187-1.688C311 499 311 499 313 499z" fill="#F1F1F1"/><path d="m179 433 2 1-.07 2.45-.055 3.238-.07 3.199c.196 3.136.864 5.29 2.195 8.113l-2 1v-3h-2c-1.064-5.452-1.781-10.656 0-16z" fill="#E3E3E3"/><path d="M123.563 432.938 127 433l-2 10h-2v-7l-4-2c1-1 1-1 4.563-1.063zM370 344c2.063.438 2.063.438 4 1l-4 1v2h2v3h2v3h2l-1 3c-3.664-3.946-5.74-6.404-6-12l1-1z" fill="#E6E6E6"/><path d="M194 288h1c.324 6.064.5 10.75-3 16l-2 1c-.688-1.75-.688-1.75-1-4 1.195-1.9 2.418-3.418 4-5 .23-1.347.412-2.704.563-4.063L194 288z" fill="#E6F1F1"/><path d="M187 191c1.61 2.414 2.655 4.34 3.688 7l.824 2.063C192 202 192 202 191 205l-2-6h-2l-1 3-1-6h2v-5z" fill="#7D7D7D"/><path d="m324 100 3 1c.625 2.375.625 2.375 1 5l-2 2h-4c.875-5.75.875-5.75 2-8z" fill="#98DAE8"/><path d="m182 334 2 1c.625 2.563.625 2.563 1 5l2-2v4l2 1-3 3c-2-1-2-1-3.125-4.313C182 338 182 338 182 334z" fill="#7C7C7C"/><path d="m385 303 6 2-3 1v2h2v2l2 1c-3 0-3 0-5.688-2.5L384 306l1-3z" fill="#E6E6E6"/><path d="m328 114 2 1-4 8-2-1c-.625-3.063-.625-3.063-1-6 2.375-1.063 2.375-1.063 5-2z" fill="#96D8E6"/><path d="M374 392c1.137 1.742 1.137 1.742 2 4-.793 2.07-.793 2.07-2.188 4.125l-1.355 2.07C371 404 371 404 368 406c.617-4.007 2.786-6.679 5-10 .77-2.226.77-2.226 1-4z" fill="#1F1F1F"/><path d="M257 340c3.909 5.085 3.909 5.085 4 8-1.938 2.25-1.938 2.25-4 4-1.312-2.623-.896-4.23-.563-7.125l.31-2.758L257 340z" fill="#E5F5F6"/><path d="m292 413 3 1v5c-6.75 4-6.75 4-9 4l1-3 5-2 1-3-2-1 1-1z" fill="#E8E8E8"/><path d="m71 378-2 6 2.5 1.875L74 388v2h-3v-2h-2c-2.29-3.435-2.178-4.985-2-9 2-1 2-1 4-1z" fill="#E9E9E9"/><path d="m184 295 1 4c-3.435 2.29-4.985 2.178-9 2v-3l3.438-.938c3.35-.691 3.35-.691 4.562-2.062z" fill="#7C7C7C"/><path d="M252 516h1v7h-9c3-3 3-3 5.688-3.188L252 520v-4z" fill="#161616"/><path d="M101 392h9l1 5h-4l2-1v-2h-7l-1-2z" fill="#E8E8E8"/><path d="m287 158 2 3-2 2-2.125-1.938c-3.103-2.226-5.121-2.713-8.875-3.062v-1c4.37-1.016 7.023-1.21 11 1z" fill="#929293"/><path d="M165 507c4.677 1.477 4.677 1.477 6.313 4.125L172 513c-1 1-1 1-3.563 1.063L166 514l-1-3h3l-3-2v-2z" fill="#EBEBEB"/><path d="M164 503c2.108 4.216 2.177 6.398 2 11h-2v-2h-3l3-9z" fill="#848484"/><path d="M153 478h2v2l2.75.813c2.965 1.083 4.867 2.17 7.25 4.187-4.164 0-5.664-.613-9.25-2.5l-2.703-1.406L151 480l2-2z" fill="#EEE"/><path d="M190 329h2v10l-2 1c-1.125-7.625-1.125-7.625 0-11z" fill="#9DD9E5"/><path d="M183 284c2.622 1.049 3.794 1.65 5.25 4.125L189 290h-2v5h-1l-.813-2.813c-1.098-2.95-1.811-4.243-4.187-6.187h2v-2zm1 1 1 2z" fill="#CFCFCF"/><path d="M266 266h1l.375 2.813c.44 3.326.44 3.326 2.625 6.187-.375 3.188-.375 3.188-1 6-2.663-2.663-2.944-4.653-3.098-8.36l.036-2.39.027-2.422L266 266z" fill="#EBF4F5"/><path d="M313 255c2.839 4.258 2.839 4.258 3 7-1.938 2.75-1.938 2.75-4 5-1.456-4.52-.27-7.516 1-12z" fill="#8ED5E6"/><path d="m134 495 5 2v4h-4v-2h-2l1-4z" fill="#CBCBCB"/><path d="m251 465 2 3-7 7-2-3 2.375-1.813c2.77-2.098 2.77-2.098 4.625-5.187z" fill="#EDEDED"/><path d="m372 371 6 2v5l-2-1v-3h-3l1 4h-2a128.624 128.624 0 0 1-1-6l1-1z" fill="#DCDCDC"/><path d="M194 357c5.413 1.804 8.598 6.59 12 11-5.589-1.355-8.653-5.61-12-10v-1z" fill="#E2E2E2"/><path d="M269 191c2.27 3.404 2.365 5.165 2.625 9.188l.227 3.292L272 206l-2-1c-.668-2.398-.668-2.398-1.188-5.375l-.542-2.96C268 194 268 194 269 191z" fill="#DAF0F2"/><path d="M259 191h1c.533 1.746 1.05 3.497 1.563 5.25l.878 2.953c.551 2.76.497 4.188-.441 6.797v-2h-2c-1.102-4.41-1.077-8.484-1-13z" fill="#B0E2EC"/><path d="M235 171h6l-2 5-5-1 1-4z" fill="#7FD0E2"/><path d="M286 505h3c2 3 2 3 2 6l-5-1v-5z" fill="#0D0D0D"/><path d="M319 428c3 3.75 3 3.75 3 6h-2v6l-2 1c-.027-1.98-.046-3.958-.063-5.938l-.035-3.34C318 429 318 429 319 428z" fill="#CDCDCD"/><path d="m122 427 3 4-9 1c3.75-3.875 3.75-3.875 6-5z" fill="#E3E3E3"/><path d="m130 411 1 5-2 1v-4l-2.875.625L123 414l-2-2c3.196-1.065 5.657-1.074 9-1zM350 406l13 2c-3.353 2.236-3.907 2.173-7.688 1.625l-2.449-.336L351 409l-1-3z" fill="#DEDEDE"/><path d="M373 374h3c1.158 3.473 1.069 6.36 1 10h-2l-2-10z" fill="#0E0E0E"/><path d="M256 357h2c-1.486 4.593-3.85 7.436-7 11l-2-1a691 691 0 0 1 3.375-5l1.898-2.813L256 357z" fill="#DFDFDF"/><path d="m387 341 3.375 1.813 1.898 1.019C394 345 394 345 396 348c-2.813.313-2.813.313-6 0-1.886-2.389-3-3.919-3-7z" fill="#E2E2E2"/><path d="M169 286c1.3 2.598.813 3.76.188 6.563l-.52 2.44C168 297 168 297 166 298c-.081-1.437-.14-2.874-.188-4.313l-.105-2.425c.355-2.74 1.187-3.554 3.293-5.262z" fill="#0D0D0D"/><path d="M191 218h2l1 1 2-1 2 6h-2l-1 2-4-8z" fill="#D9E3E3"/><path d="m278 419 2 1c-.125 1.875-.125 1.875-1 4-3.063 1.25-3.063 1.25-6 2 0-2 0-2 2-4l3-3z" fill="#797979"/><path d="m136 419 2 3-2.75.875c-2.572.89-4.863 1.84-7.25 3.125l-1-2 9-5z" fill="#F0F0F0"/><path d="M320 402h1v13l-2 1-1-8h1l1-6z" fill="#DCDCDC"/><path d="M264 275c3.938 3.323 3.938 3.323 4.25 6.75L268 284h-2l-3-8 1-1z" fill="#54C1DB"/><path d="m267 129 2 1v2l3 1v8c-1.79-2.686-2.66-4.663-3.625-7.688-.26-.808-.52-1.616-.79-2.449-.192-.615-.386-1.23-.585-1.863z" fill="#464646"/><path d="M260 497h5l2 4-5-2-1 4h-2l1-6z" fill="#E6E6E6"/><path d="M289 415h4c-.125 1.875-.125 1.875-1 4-3.063 1.25-3.063 1.25-6 2l3-6z" fill="#202020"/><path d="M109 389c2 1.25 2 1.25 4 3v4l2 1c-1.938-.313-1.938-.313-4-1l-1-3-5-1 4-1v-2z" fill="#212121"/><path d="m290 127 1 4 5 1c-1.563.75-1.563.75-4 1-2.503-1.13-4.67-2.521-7-4 3-2 3-2 5-2z" fill="#84D2E3"/><path d="M245 445h3c-.188 2.313-.188 2.313-1 5-2.563 1.813-2.563 1.813-5 3 1.875-6.875 1.875-6.875 3-8z" fill="#E4E4E4"/><path d="m316 390 2 2c-.242 2.383-.242 2.383-.875 5.125l-.617 2.758L316 402c-1.46-2.647-2-3.894-2-7h2v-5z" fill="#D2D2D2"/><path d="m52 354 2.188 2.313c2.51 2.398 4.78 4.041 7.812 5.687-2 1-2 1-4.438.25-2.48-1.21-3.941-2.032-5.562-4.25v-4z" fill="#F6F6F6"/><path d="m369 339 2 4-1.875.75c-2.476 1.456-3.076 2.628-4.125 5.25-.25-2.75-.25-2.75 0-6 2-2.375 2-2.375 4-4z" fill="#E9E9E9"/><path d="M171 291h1l.586 6.152L173 299l2 1h-5c-1.255-3.766-.37-5.372 1-9z" fill="#C9C9C9"/><path d="M309 226c2.686 2.686 3.06 5.376 4 9l-2 2-3-10 1-1z" fill="#8F8F8F"/><path d="m318 124 7 1v2l6 1c-1.563 1.25-1.563 1.25-4 2-3.503-1.373-6.35-3.35-9-6z" fill="#8CD3E3"/><path d="M167 501c6.75-.125 6.75-.125 9 1l-2 4-1-3h-3l-2 2-1-4z" fill="#9B9B9B"/><path d="m317 444 1 4c-2.639 1.414-5.071 2.372-8 3l2-4 4 1 1-4z" fill="#E5E5E5"/><path d="m105 427 6 1v5l-2 1v-4h-4v-3z" fill="#E1E1E1"/><path d="m126 416 3 1c-3.2 2.743-6.005 4.63-10 6 2.22-2.908 3.93-4.953 7-7z" fill="#E7E7E7"/><path d="M310 382h7c-1.619 3.237-4.845 4.422-8 6l1-6z" fill="#919191"/><path d="M141 154c0 2 0 2-2 4.125L137 160l-4-2c5.75-4 5.75-4 8-4z" fill="#83D2E5"/><path d="m285 492-1 3v-2h-2l-1 2a113.158 113.158 0 0 1-5 3c.25-1.875.25-1.875 1-4 2.94-2.028 4.277-2 8-2z" fill="#EDEDED"/><path d="m185 425 2 1-5 8-2-1 1-4h2v-3l2-1z" fill="#EAEAEA"/><path d="M279 423h2c1.354 2.709 1.065 5.01 1 8l-2-1v-4l-3-1 2-2z" fill="#DADADA"/><path d="m97 371 2 1c-.547 3.375-1.055 5.082-3 8l-3-1 1.438-1.188c1.914-2.22 2.175-3.946 2.562-6.812z" fill="#D9D9D9"/><path d="m271 347 1 3 3-1-2 7c-1.563-1.125-1.563-1.125-3-3 .313-3.188.313-3.188 1-6z" fill="#DAE7E8"/><path d="m250 514 5 1c-.813 1.938-.813 1.938-2 4l-3 1v-6z" fill="#F8F8F8"/><path d="M305 487c3.313.188 3.313.188 7 1 1.938 2.563 1.938 2.563 3 5l-1.625-.875c-2.728-1.292-5.501-2.21-8.375-3.125v-2z" fill="#ECECEC"/><path d="m189 456 2 2-3 7h-2l3-9z" fill="#EEE"/><path d="m265 442 2 3-2 1a530 530 0 0 0-1 5l-2 2c.75-7.625.75-7.625 3-11z" fill="#D9D9D9"/><path d="M388 348c2.5 2.174 3.436 3.73 4 7a125.024 125.024 0 0 1-6-4v-2l2-1z" fill="#E2E2E2"/><path d="m146 326 1 2h2v8c-3.006-3.006-2.596-5.824-3-10z" fill="#9FDDE8"/><path d="M178 181h2l1 5-10-1v-1h7v-3z" fill="#DBF0F4"/><path d="M124 167c0 3.258-.552 5.104-2 8l-3 1c1.09-3.775 1.908-6.47 5-9z" fill="#A7DEEA"/><path d="M116 140h1c.125 2.875.125 2.875 0 6l-2 2h-3l1-3h2l1-5z" fill="#9BDAE7"/><path d="M162 488c1.5 1.25 1.5 1.25 3 3v4h-4l1-7z" fill="#DFDFDF"/><path d="m275 457 4 2-2 5h-2v-7z" fill="#F1F1F1"/><path d="M185 365c2.648 2.578 4.944 4.916 7 8l-5-1-2-7z" fill="#9BDBE7"/><path d="M329 351v10h-1l-.438-2.25c-.464-2.27-.98-4.508-1.562-6.75 2-1 2-1 3-1z" fill="#262626"/><path d="M75 335h4c1.125 6.75 1.125 6.75 0 9l-3-1 1-2v-4l-2-2z" fill="#E7E7E7"/><path d="M395 324h1v7l-4 1 3-8z" fill="#EDEDED"/><path d="m56 318 2 2-4 5-3-1h2l.938-2.438C55 319 55 319 56 318z" fill="#E7E7E7"/><path d="m67 297 2 2a125.024 125.024 0 0 1-4 6h-2c.506-2.169 1-4 2-6h2v-2z" fill="#EFEFEF"/><path d="m186 283 4 1 1 4-5-2v-3z" fill="#494949"/><path d="m318 244 1 2 4-1-2 6c-3-3.625-3-3.625-3-7z" fill="#A2DBE6"/><path d="M205 212c1.875.563 1.875.563 4 2 1.25 3.625 1.25 3.625 2 7-3.08-2.773-4.688-5.063-6-9z" fill="#A1DCE7"/><path d="m109 424 2 1z" fill="#FEFEFE"/><path d="m117 421 2 1zM84 369l2 1z" fill="#FDFDFD"/><path d="m71 357 2 1z" fill="#FEFEFE"/></svg>